<?xml version="1.0" encoding="UTF-8"?>
<svg version="1.1" xmlns="http://www.w3.org/2000/svg" width="402" height="621">
<path d="M0 0 C1.22355698 0.00222061 2.44711395 0.00444122 3.70774841 0.00672913 C4.71746201 0.00651009 4.71746201 0.00651009 5.74757385 0.00628662 C7.98229649 0.00698573 10.21693674 0.01477799 12.4516449 0.02259827 C13.99721226 0.02446245 15.54278022 0.02588635 17.08834839 0.02688599 C21.16380941 0.03071112 25.23923502 0.04054135 29.31468201 0.05158997 C33.47035747 0.0618042 37.62603864 0.06638363 41.78172302 0.07142639 C49.94124452 0.08216363 58.10073718 0.09923998 66.26023865 0.12025452 C67.40428852 4.21706017 67.38633332 8.16078982 67.3578949 12.38587952 C67.35647995 13.17927734 67.355065 13.97267517 67.35360718 14.79011536 C67.3480228 17.31686723 67.33547319 19.84352955 67.32273865 22.37025452 C67.31772163 24.08639907 67.31315907 25.80254501 67.30906677 27.51869202 C67.29805849 31.7192472 67.28080461 35.91973569 67.26023865 40.12025452 C63.96023865 40.12025452 60.66023865 40.12025452 57.26023865 40.12025452 C57.26023865 48.37025452 57.26023865 56.62025452 57.26023865 65.12025452 C60.32305115 65.21306702 60.32305115 65.21306702 63.44773865 65.30775452 C77.03519167 66.34663422 87.41026422 72.01184936 97.26023865 81.12025452 C97.26023865 81.78025452 97.26023865 82.44025452 97.26023865 83.12025452 C98.12842224 83.45863342 98.12842224 83.45863342 99.0141449 83.80384827 C107.43334924 88.73823412 110.85140661 100.42293639 113.2369175 109.30874252 C115.19379016 117.63873718 115.04506756 126.11965485 115.06761169 134.63050842 C115.09013502 136.56955491 115.11455912 138.50858013 115.14076519 140.44758034 C115.20087852 145.39223851 115.23106863 150.33651287 115.24908018 155.28148746 C115.25966692 157.97480399 115.2760628 160.66800542 115.29500198 163.36127472 C115.36991379 174.3243908 115.37241386 185.28667924 115.34776282 196.24997759 C115.34015552 199.99789028 115.33641286 203.74580369 115.33256394 207.49372184 C115.32104309 218.61493454 115.29924397 229.73611061 115.27410126 240.8572998 C115.26230145 246.09234166 115.25197689 251.32738515 115.24218047 256.5624311 C115.19609588 281.15234608 115.12754068 305.74207608 115.02450371 330.33182144 C114.97888996 341.27724148 114.93938614 352.2226191 114.9138031 363.16810608 C114.89085672 372.98542071 114.85761954 382.80263425 114.81153709 392.61986864 C114.78780362 397.74234296 114.76893856 402.86471955 114.76262474 407.98724747 C114.75660008 412.72772889 114.73669741 417.46794644 114.70596313 422.20833015 C114.69718305 423.93733327 114.69346027 425.66637078 114.69523048 427.39539528 C114.69688499 429.75537174 114.6801778 432.11454498 114.65896606 434.47441101 C114.6543571 435.79036066 114.64974813 437.10631031 114.6449995 438.46213722 C114.04154805 444.19945738 111.84014646 448.77989737 108.32273865 453.37025452 C107.83934021 454.01478577 107.35594177 454.65931702 106.8578949 455.32337952 C102.36855432 460.37251562 97.17963586 461.79996583 90.58001709 462.33927917 C87.42974632 462.46411051 84.28380963 462.52777319 81.1313324 462.56947327 C79.3387928 462.60289574 79.3387928 462.60289574 77.51004028 462.63699341 C74.25116262 462.69373669 70.99235049 462.74108619 67.73323822 462.78186035 C65.69197077 462.80782789 63.65076181 462.83670903 61.60954285 462.8662262 C40.55885007 463.16398475 19.51270907 463.1659894 -1.53823471 462.89531326 C-3.60767888 462.87033999 -5.67711788 462.85043067 -7.74662781 462.83177185 C-11.61708715 462.79547655 -15.48687679 462.73317879 -19.35694885 462.66712952 C-20.49698868 462.65754715 -21.6370285 462.64796478 -22.81161499 462.63809204 C-31.16688834 462.45754083 -38.63725836 461.38334969 -44.73976135 455.12025452 C-49.79881738 447.95120195 -51.86411435 442.24196011 -51.86560249 433.42516613 C-51.86821024 432.30756694 -51.87081799 431.18996775 -51.87350476 430.03850192 C-51.87127404 428.82090554 -51.86904331 427.60330916 -51.866745 426.34881592 C-51.86908498 424.39667143 -51.86908498 424.39667143 -51.87147224 422.40508968 C-51.87564422 418.79891048 -51.87358446 415.19275777 -51.87048602 411.58657849 C-51.86822341 407.69485808 -51.87171588 403.80314223 -51.87446594 399.91142273 C-51.87891375 392.28912367 -51.87795144 384.66683445 -51.8750533 377.044535 C-51.8727949 370.84814837 -51.87248865 364.6517645 -51.87357712 358.45537758 C-51.87373035 357.57344879 -51.87388358 356.69152 -51.87404146 355.78286609 C-51.87436119 353.99120388 -51.8746854 352.19954166 -51.87501405 350.40787945 C-51.87786608 333.60425312 -51.87458642 316.80063225 -51.86921369 299.99700681 C-51.86474823 285.58504303 -51.86551999 271.1730873 -51.87013245 256.76112366 C-51.87548711 240.02226164 -51.87758896 223.28340441 -51.87452018 206.54454166 C-51.87420164 204.75855402 -51.87388727 202.97256639 -51.87357712 201.18657875 C-51.87342284 200.30786391 -51.87326857 199.42914907 -51.87310962 198.52380651 C-51.87224697 192.33784745 -51.87370197 186.15189143 -51.87605667 179.96593285 C-51.87886487 172.42279281 -51.87809497 164.87966318 -51.87277593 157.33652433 C-51.87015234 153.48938063 -51.86911106 149.64225426 -51.87242508 145.7951107 C-51.87596633 141.62094014 -51.87173054 137.44681312 -51.866745 133.27264404 C-51.86897572 132.06173983 -51.87120644 130.85083561 -51.87350476 129.60323733 C-51.8303978 110.99961977 -47.41991379 95.34112654 -34.48976135 81.37025452 C-22.28775225 70.02793241 -10.11684544 65.76885191 6.26023865 65.12025452 C6.26023865 56.87025452 6.26023865 48.62025452 6.26023865 40.12025452 C2.96023865 40.12025452 -0.33976135 40.12025452 -3.73976135 40.12025452 C-3.76440911 34.58436918 -3.78259631 29.04851552 -3.79469299 23.5125885 C-3.79973379 21.62781722 -3.80656634 19.74304987 -3.81520081 17.85829163 C-3.82727752 15.15523816 -3.83299204 12.45223621 -3.8374176 9.74916077 C-3.84257889 8.90124466 -3.84774017 8.05332855 -3.85305786 7.17971802 C-3.8532533 5.15954383 -3.80182346 3.13947518 -3.73976135 1.12025452 C-2.73976135 0.12025452 -2.73976135 0.12025452 0 0 Z M-34.73976135 188.12025452 C-34.73976135 194.39025452 -34.73976135 200.66025452 -34.73976135 207.12025452 C-33.71906413 208.36292516 -33.71906413 208.36292516 -31.57083797 208.24330235 C-30.60572072 208.24238055 -29.64060347 208.24145876 -28.64624023 208.24050903 C-26.99079697 208.24257103 -26.99079697 208.24257103 -25.3019104 208.24467468 C-23.46988319 208.23928177 -23.46988319 208.23928177 -21.60084534 208.23377991 C-20.32298157 208.23392593 -19.0451178 208.23407196 -17.72853088 208.23422241 C-14.21422545 208.23451037 -10.69995385 208.22861392 -7.18565631 208.22164845 C-3.5167678 208.21541464 0.15212141 208.2148111 3.8210144 208.21362305 C10.773143 208.21050981 17.72525595 208.20229653 24.67737764 208.19227356 C32.59018645 208.18111217 40.50299599 208.17560191 48.4158107 208.17057812 C64.69729612 208.16011391 80.97876477 208.14231417 97.26023865 208.12025452 C97.26023865 201.52025452 97.26023865 194.92025452 97.26023865 188.12025452 C53.70023865 188.12025452 10.14023865 188.12025452 -34.73976135 188.12025452 Z " fill="#4FACDD" transform="translate(169.73976135253906,55.87974548339844)"/>
<path d="M0 0 C1.22355698 0.00222061 2.44711395 0.00444122 3.70774841 0.00672913 C4.71746201 0.00651009 4.71746201 0.00651009 5.74757385 0.00628662 C7.98229649 0.00698573 10.21693674 0.01477799 12.4516449 0.02259827 C13.99721226 0.02446245 15.54278022 0.02588635 17.08834839 0.02688599 C21.16380941 0.03071112 25.23923502 0.04054135 29.31468201 0.05158997 C33.47035747 0.0618042 37.62603864 0.06638363 41.78172302 0.07142639 C49.94124452 0.08216363 58.10073718 0.09923998 66.26023865 0.12025452 C67.40428852 4.21706017 67.38633332 8.16078982 67.3578949 12.38587952 C67.35647995 13.17927734 67.355065 13.97267517 67.35360718 14.79011536 C67.3480228 17.31686723 67.33547319 19.84352955 67.32273865 22.37025452 C67.31772163 24.08639907 67.31315907 25.80254501 67.30906677 27.51869202 C67.29805849 31.7192472 67.28080461 35.91973569 67.26023865 40.12025452 C63.96023865 40.12025452 60.66023865 40.12025452 57.26023865 40.12025452 C57.26023865 48.37025452 57.26023865 56.62025452 57.26023865 65.12025452 C58.91023865 65.12025452 60.56023865 65.12025452 62.26023865 65.12025452 C62.26023865 65.45025452 62.26023865 65.78025452 62.26023865 66.12025452 C52.36023865 66.12025452 42.46023865 66.12025452 32.26023865 66.12025452 C32.26023865 96.15025452 32.26023865 126.18025452 32.26023865 157.12025452 C4.87023865 157.12025452 -22.51976135 157.12025452 -50.73976135 157.12025452 C-50.73976135 186.82025452 -50.73976135 216.52025452 -50.73976135 247.12025452 C-23.34976135 247.12025452 4.04023865 247.12025452 32.26023865 247.12025452 C32.26023865 317.74025452 32.26023865 388.36025452 32.26023865 461.12025452 C53.71023865 460.79025452 75.16023865 460.46025452 97.26023865 460.12025452 C93.46997728 462.0153852 92.13450823 462.38218994 88.11448669 462.45497131 C86.55462791 462.48952675 86.55462791 462.48952675 84.96325684 462.52478027 C83.82762802 462.53952896 82.69199921 462.55427765 81.5219574 462.56947327 C79.72092812 462.60289574 79.72092812 462.60289574 77.8835144 462.63699341 C74.59165107 462.69398293 71.29998178 462.74121929 68.00789642 462.78186035 C65.94831709 462.80774725 63.88879863 462.83663804 61.82926941 462.8662262 C40.70475812 463.16323697 19.58472452 463.16723041 -1.54001999 462.89531326 C-3.60850282 462.87033011 -5.67698038 462.85042463 -7.74552917 462.83177185 C-11.61635459 462.79547251 -15.48651058 462.73317523 -19.35694885 462.66712952 C-20.49700882 462.65754715 -21.63706879 462.64796478 -22.81167603 462.63809204 C-31.16692756 462.45753788 -38.63727631 461.38333127 -44.73976135 455.12025452 C-49.79881738 447.95120195 -51.86411435 442.24196011 -51.86560249 433.42516613 C-51.86821024 432.30756694 -51.87081799 431.18996775 -51.87350476 430.03850192 C-51.87127404 428.82090554 -51.86904331 427.60330916 -51.866745 426.34881592 C-51.86908498 424.39667143 -51.86908498 424.39667143 -51.87147224 422.40508968 C-51.87564422 418.79891048 -51.87358446 415.19275777 -51.87048602 411.58657849 C-51.86822341 407.69485808 -51.87171588 403.80314223 -51.87446594 399.91142273 C-51.87891375 392.28912367 -51.87795144 384.66683445 -51.8750533 377.044535 C-51.8727949 370.84814837 -51.87248865 364.6517645 -51.87357712 358.45537758 C-51.87373035 357.57344879 -51.87388358 356.69152 -51.87404146 355.78286609 C-51.87436119 353.99120388 -51.8746854 352.19954166 -51.87501405 350.40787945 C-51.87786608 333.60425312 -51.87458642 316.80063225 -51.86921369 299.99700681 C-51.86474823 285.58504303 -51.86551999 271.1730873 -51.87013245 256.76112366 C-51.87548711 240.02226164 -51.87758896 223.28340441 -51.87452018 206.54454166 C-51.87420164 204.75855402 -51.87388727 202.97256639 -51.87357712 201.18657875 C-51.87342284 200.30786391 -51.87326857 199.42914907 -51.87310962 198.52380651 C-51.87224697 192.33784745 -51.87370197 186.15189143 -51.87605667 179.96593285 C-51.87886487 172.42279281 -51.87809497 164.87966318 -51.87277593 157.33652433 C-51.87015234 153.48938063 -51.86911106 149.64225426 -51.87242508 145.7951107 C-51.87596633 141.62094014 -51.87173054 137.44681312 -51.866745 133.27264404 C-51.86897572 132.06173983 -51.87120644 130.85083561 -51.87350476 129.60323733 C-51.8303978 110.99961977 -47.41991379 95.34112654 -34.48976135 81.37025452 C-22.28775225 70.02793241 -10.11684544 65.76885191 6.26023865 65.12025452 C6.26023865 56.87025452 6.26023865 48.62025452 6.26023865 40.12025452 C2.96023865 40.12025452 -0.33976135 40.12025452 -3.73976135 40.12025452 C-3.76440911 34.58436918 -3.78259631 29.04851552 -3.79469299 23.5125885 C-3.79973379 21.62781722 -3.80656634 19.74304987 -3.81520081 17.85829163 C-3.82727752 15.15523816 -3.83299204 12.45223621 -3.8374176 9.74916077 C-3.84257889 8.90124466 -3.84774017 8.05332855 -3.85305786 7.17971802 C-3.8532533 5.15954383 -3.80182346 3.13947518 -3.73976135 1.12025452 C-2.73976135 0.12025452 -2.73976135 0.12025452 0 0 Z " fill="#7DC3E7" transform="translate(169.73976135253906,55.87974548339844)"/>
<path d="M0 0 C54.12 0 108.24 0 164 0 C164 29.7 164 59.4 164 90 C109.88 90 55.76 90 0 90 C0 60.3 0 30.6 0 0 Z M16 31 C16 37.27 16 43.54 16 50 C17.02069722 51.24267064 17.02069722 51.24267064 19.16892338 51.12304783 C20.13404063 51.12212604 21.09915789 51.12120424 22.09352112 51.12025452 C23.74896439 51.12231651 23.74896439 51.12231651 25.43785095 51.12442017 C27.26987816 51.11902725 27.26987816 51.11902725 29.13891602 51.11352539 C30.41677979 51.11367142 31.69464355 51.11381744 33.01123047 51.1139679 C36.52553591 51.11425585 40.0398075 51.1083594 43.55410504 51.10139394 C47.22299356 51.09516012 50.89188277 51.09455658 54.56077576 51.09336853 C61.51290435 51.0902553 68.4650173 51.08204202 75.41713899 51.07201904 C83.3299478 51.06085766 91.24275734 51.05534739 99.15557206 51.05032361 C115.43705747 51.0398594 131.71852612 51.02205965 148 51 C148 44.4 148 37.8 148 31 C104.44 31 60.88 31 16 31 Z " fill="#41A5DA" transform="translate(119,213)"/>
<path d="M0 0 C1.22355698 0.00222061 2.44711395 0.00444122 3.70774841 0.00672913 C4.71746201 0.00651009 4.71746201 0.00651009 5.74757385 0.00628662 C7.98229649 0.00698573 10.21693674 0.01477799 12.4516449 0.02259827 C13.99721226 0.02446245 15.54278022 0.02588635 17.08834839 0.02688599 C21.16380941 0.03071112 25.23923502 0.04054135 29.31468201 0.05158997 C33.47035747 0.0618042 37.62603864 0.06638363 41.78172302 0.07142639 C49.94124452 0.08216363 58.10073718 0.09923998 66.26023865 0.12025452 C67.40428852 4.21706017 67.38633332 8.16078982 67.3578949 12.38587952 C67.35647995 13.17927734 67.355065 13.97267517 67.35360718 14.79011536 C67.3480228 17.31686723 67.33547319 19.84352955 67.32273865 22.37025452 C67.31772163 24.08639907 67.31315907 25.80254501 67.30906677 27.51869202 C67.29805849 31.7192472 67.28080461 35.91973569 67.26023865 40.12025452 C63.96023865 40.12025452 60.66023865 40.12025452 57.26023865 40.12025452 C57.26023865 48.37025452 57.26023865 56.62025452 57.26023865 65.12025452 C58.91023865 65.12025452 60.56023865 65.12025452 62.26023865 65.12025452 C62.26023865 65.45025452 62.26023865 65.78025452 62.26023865 66.12025452 C52.36023865 66.12025452 42.46023865 66.12025452 32.26023865 66.12025452 C32.26023865 96.15025452 32.26023865 126.18025452 32.26023865 157.12025452 C4.87023865 157.12025452 -22.51976135 157.12025452 -50.73976135 157.12025452 C-50.73976135 250.18025452 -50.73976135 343.24025452 -50.73976135 439.12025452 C-51.06976135 439.12025452 -51.39976135 439.12025452 -51.73976135 439.12025452 C-51.76265251 398.63473721 -51.7802722 358.14922075 -51.79082668 317.66369826 C-51.79207738 312.88351062 -51.7933717 308.103323 -51.79469299 303.32313538 C-51.7949553 302.37149006 -51.79521761 301.41984474 -51.79548787 300.43936168 C-51.79983863 285.03247398 -51.80772292 269.62559002 -51.81691415 254.21870453 C-51.82626719 238.40865781 -51.83182047 222.59861304 -51.83384985 206.78856367 C-51.83522164 197.03372354 -51.83955367 187.27889396 -51.84767782 177.52405708 C-51.85296562 170.83390472 -51.85456101 164.14375781 -51.85326273 157.45360351 C-51.85262254 153.59434851 -51.85360083 149.73511194 -51.85896683 145.87586021 C-51.86474677 141.68823439 -51.86274646 137.50064772 -51.86001587 133.3130188 C-51.86292871 132.09802187 -51.86584155 130.88302493 -51.86884266 129.63120991 C-51.83601786 111.0162824 -47.42806335 95.34993204 -34.48976135 81.37025452 C-22.28775225 70.02793241 -10.11684544 65.76885191 6.26023865 65.12025452 C6.26023865 56.87025452 6.26023865 48.62025452 6.26023865 40.12025452 C2.96023865 40.12025452 -0.33976135 40.12025452 -3.73976135 40.12025452 C-3.76440911 34.58436918 -3.78259631 29.04851552 -3.79469299 23.5125885 C-3.79973379 21.62781722 -3.80656634 19.74304987 -3.81520081 17.85829163 C-3.82727752 15.15523816 -3.83299204 12.45223621 -3.8374176 9.74916077 C-3.84257889 8.90124466 -3.84774017 8.05332855 -3.85305786 7.17971802 C-3.8532533 5.15954383 -3.80182346 3.13947518 -3.73976135 1.12025452 C-2.73976135 0.12025452 -2.73976135 0.12025452 0 0 Z " fill="#83C6E9" transform="translate(169.73976135253906,55.87974548339844)"/>
<path d="M0 0 C27.06 0 54.12 0 82 0 C82 29.7 82 59.4 82 90 C55.27 90 28.54 90 1 90 C1 77.46 1 64.92 1 52 C22.78 52 44.56 52 67 52 C67 44.74 67 37.48 67 30 C44.89 30 22.78 30 0 30 C0 20.1 0 10.2 0 0 Z " fill="#027CC1" transform="translate(201,213)"/>
<path d="M0 0 C22.11 0 44.22 0 67 0 C67 12.21 67 24.42 67 37 C44.89 37 22.78 37 0 37 C0 24.79 0 12.58 0 0 Z " fill="#379FD8" transform="translate(168,58)"/>
<path d="M0 0 C1.22355698 0.00222061 2.44711395 0.00444122 3.70774841 0.00672913 C4.71746201 0.00651009 4.71746201 0.00651009 5.74757385 0.00628662 C7.98229649 0.00698573 10.21693674 0.01477799 12.4516449 0.02259827 C13.99721226 0.02446245 15.54278022 0.02588635 17.08834839 0.02688599 C21.16380941 0.03071112 25.23923502 0.04054135 29.31468201 0.05158997 C33.47035747 0.0618042 37.62603864 0.06638363 41.78172302 0.07142639 C49.94124452 0.08216363 58.10073718 0.09923998 66.26023865 0.12025452 C67.40428852 4.21706017 67.38633332 8.16078982 67.3578949 12.38587952 C67.35647995 13.17927734 67.355065 13.97267517 67.35360718 14.79011536 C67.3480228 17.31686723 67.33547319 19.84352955 67.32273865 22.37025452 C67.31772163 24.08639907 67.31315907 25.80254501 67.30906677 27.51869202 C67.29805849 31.7192472 67.28080461 35.91973569 67.26023865 40.12025452 C63.96023865 40.12025452 60.66023865 40.12025452 57.26023865 40.12025452 C57.26023865 48.37025452 57.26023865 56.62025452 57.26023865 65.12025452 C58.91023865 65.12025452 60.56023865 65.12025452 62.26023865 65.12025452 C62.26023865 65.45025452 62.26023865 65.78025452 62.26023865 66.12025452 C41.80023865 66.12025452 21.34023865 66.12025452 0.26023865 66.12025452 C0.26023865 65.79025452 0.26023865 65.46025452 0.26023865 65.12025452 C2.24023865 65.12025452 4.22023865 65.12025452 6.26023865 65.12025452 C6.26023865 56.87025452 6.26023865 48.62025452 6.26023865 40.12025452 C2.96023865 40.12025452 -0.33976135 40.12025452 -3.73976135 40.12025452 C-3.76440911 34.58436918 -3.78259631 29.04851552 -3.79469299 23.5125885 C-3.79973379 21.62781722 -3.80656634 19.74304987 -3.81520081 17.85829163 C-3.82727752 15.15523816 -3.83299204 12.45223621 -3.8374176 9.74916077 C-3.84257889 8.90124466 -3.84774017 8.05332855 -3.85305786 7.17971802 C-3.8532533 5.15954383 -3.80182346 3.13947518 -3.73976135 1.12025452 C-2.73976135 0.12025452 -2.73976135 0.12025452 0 0 Z M-1.73976135 2.12025452 C-1.73976135 14.33025452 -1.73976135 26.54025452 -1.73976135 39.12025452 C20.37023865 39.12025452 42.48023865 39.12025452 65.26023865 39.12025452 C65.26023865 26.91025452 65.26023865 14.70025452 65.26023865 2.12025452 C43.15023865 2.12025452 21.04023865 2.12025452 -1.73976135 2.12025452 Z " fill="#A0BECF" transform="translate(169.73976135253906,55.87974548339844)"/>
<path d="M0 0 C10.89 0 21.78 0 33 0 C33 12.21 33 24.42 33 37 C22.11 37 11.22 37 0 37 C0 24.79 0 12.58 0 0 Z " fill="#027BBF" transform="translate(202,58)"/>
<path d="M0 0 C5.07865995 2.27126251 8.86494157 5.64136597 11.84765625 10.34765625 C13.79025346 16.06884195 14.09694584 23.64052369 11.47265625 29.16015625 C8.05172256 34.16463169 2.34860893 37.59209645 -3.5234375 38.859375 C-9.74760944 39.17220167 -15.07611565 37.1271923 -19.69140625 32.95703125 C-24.13053672 28.02466407 -25.62018191 22.94085263 -25.39453125 16.359375 C-24.63734579 10.06985058 -21.66887824 6.44728732 -16.96875 2.609375 C-11.56990434 -1.14079091 -6.3550743 -1.9261296 0 0 Z " fill="#B3DDF4" transform="translate(159.15234375,142.65234375)"/>
<path d="M0 0 C8.58 0 17.16 0 26 0 C26 8.58 26 17.16 26 26 C15.44 26 4.88 26 -6 26 C-6 25.67 -6 25.34 -6 25 C-4.02 25 -2.04 25 0 25 C0 16.75 0 8.5 0 0 Z " fill="#B3C7D3" transform="translate(176,96)"/>
<path d="M0 0 C0.33 0 0.66 0 1 0 C1.00423194 1.01159809 1.00846388 2.02319618 1.01282406 3.06544876 C1.11593836 27.66018701 1.22467659 52.25489547 1.33933926 76.84958267 C1.39465813 88.74329898 1.44813797 100.63701829 1.49731445 112.53076172 C1.54017261 122.8952444 1.58645477 133.25970511 1.63687855 143.62415385 C1.6634663 149.1139232 1.6883191 154.60368822 1.70907402 160.09348297 C1.72865263 165.25784331 1.75280017 170.42216189 1.78049088 175.58648491 C1.7898548 177.48438954 1.79753245 179.38230334 1.80341911 181.28022194 C1.81169143 183.86689391 1.82597137 186.45346483 1.84178162 189.0401001 C1.84275972 189.79496555 1.84373783 190.54983099 1.84474558 191.32757115 C1.7717582 196.27984679 1.7717582 196.27984679 3 201 C3.99 201.33 4.98 201.66 6 202 C7.625 204.9375 7.625 204.9375 9 208 C9.33 208.66 9.66 209.32 10 210 C5.50328076 208.11308658 3.60923592 205.52451776 1.24091721 201.34105301 C-1.44534329 194.10854897 -0.77388427 186.30399573 -0.68115234 178.68896484 C-0.67945792 176.73677625 -0.68041375 174.78458384 -0.68380737 172.83239746 C-0.68552287 167.55595974 -0.65034489 162.28034699 -0.60836363 157.00410032 C-0.57075528 151.4815058 -0.5673233 145.95889057 -0.56021118 140.43618774 C-0.54159204 129.9886288 -0.49239454 119.54144835 -0.43211424 109.09405577 C-0.36495795 97.19567576 -0.33203714 85.29727731 -0.30194163 73.39875484 C-0.23929303 48.93229372 -0.13381491 24.4661681 0 0 Z " fill="#B4D5E4" transform="translate(119,303)"/>
<path d="M0 0 C1.32 0.33 2.64 0.66 4 1 C3.34 1 2.68 1 2 1 C2.33 29.71 2.66 58.42 3 88 C1.515 88.495 1.515 88.495 0 89 C0 59.63 0 30.26 0 0 Z " fill="#489CC7" transform="translate(119,214)"/>
<path d="M0 0 C0.66 0.33 1.32 0.66 2 1 C1.34 1.66 0.68 2.32 0 3 C-1.0828125 4.1446875 -1.0828125 4.1446875 -2.1875 5.3125 C-4.35916772 7.38764915 -6.22306754 8.87244773 -8.6875 10.5 C-11.79057381 12.62244875 -12.88430489 14.34863417 -14 18 C-14.66 18.33 -15.32 18.66 -16 19 C-16.68473395 21.32809543 -17.34853151 23.66237777 -18 26 C-18.95564988 28.02156704 -19.94274747 30.02966574 -21 32 C-21.66 32 -22.32 32 -23 32 C-22.690625 33.6396875 -22.690625 33.6396875 -22.375 35.3125 C-22 39 -22 39 -24 42 C-24.32491235 43.95520809 -24.32491235 43.95520809 -24.31884766 46.10424805 C-24.33871735 46.92487228 -24.35858704 47.74549652 -24.37905884 48.59098816 C-24.39061005 49.47232925 -24.40216125 50.35367035 -24.4140625 51.26171875 C-24.43342865 52.16751175 -24.4527948 53.07330475 -24.4727478 54.00654602 C-24.53253542 56.90010151 -24.57892568 59.7936968 -24.625 62.6875 C-24.66318054 64.64910591 -24.70223231 66.61069506 -24.7421875 68.57226562 C-24.83823632 73.3813744 -24.92227043 78.19056166 -25 83 C-25.33 83 -25.66 83 -26 83 C-26.12818819 76.7054656 -26.21492357 70.41127515 -26.2746582 64.11572266 C-26.29959488 61.98017805 -26.333557 59.84471693 -26.37719727 57.70947266 C-26.77775234 37.58747066 -23.81388183 22.04582598 -9.375 7 C-6.46641375 4.26526029 -3.40514286 2.07630662 0 0 Z " fill="#BADCEB" transform="translate(145,130)"/>
<path d="M0 0 C7.75 0.75 7.75 0.75 10 3 C12.34165425 3.29867541 12.34165425 3.29867541 15.09988403 3.24050903 C16.7195256 3.24463303 16.7195256 3.24463303 18.37188721 3.24884033 C19.56159119 3.24164978 20.75129517 3.23445923 21.97705078 3.22705078 C23.22579987 3.22734283 24.47454895 3.22763489 25.76113892 3.22793579 C29.19075699 3.22677902 32.62013597 3.21673053 36.0497117 3.20278788 C39.63183803 3.19030758 43.21396735 3.18911216 46.79611206 3.18673706 C53.58177564 3.18051433 60.36737499 3.16409283 67.15301025 3.14403808 C74.87720534 3.12170371 82.60140346 3.11069186 90.3256228 3.10064721 C106.2171191 3.07972725 122.10855128 3.04453592 138 3 C134.75615516 4.72280562 132.54823382 5.26783821 128.85424805 5.3347168 C127.29438927 5.36927223 127.29438927 5.36927223 125.70301819 5.40452576 C124.56738937 5.41927444 123.43176056 5.43402313 122.26171875 5.44921875 C120.46068947 5.48264122 120.46068947 5.48264122 118.62327576 5.51673889 C115.33141242 5.57372841 112.03974314 5.62096478 108.74765778 5.66160583 C106.68807844 5.68749273 104.62855998 5.71638352 102.56903076 5.74597168 C81.44451947 6.04298246 60.32448587 6.04697589 39.19974136 5.77505875 C37.13125853 5.75007559 35.06278098 5.73017012 32.99423218 5.71151733 C29.12340676 5.67521799 25.25325077 5.61292071 21.3828125 5.546875 C20.24275253 5.53729263 19.10269257 5.52771027 17.92808533 5.51783752 C11.6270847 5.38167503 6.70557625 4.76002486 1 2 C0.67 1.34 0.34 0.68 0 0 Z " fill="#B6DFF4" transform="translate(129,513)"/>
<path d="M0 0 C22.11 0 44.22 0 67 0 C67 0.66 67 1.32 67 2 C45.55 2 24.1 2 2 2 C1.34 3.32 0.68 4.64 0 6 C0 4.02 0 2.04 0 0 Z " fill="#1A78B1" transform="translate(202,265)"/>
<path d="M0 0 C0.33 0 0.66 0 1 0 C1.02505615 1.22106445 1.0501123 2.44212891 1.07592773 3.70019531 C1.17013579 8.23269045 1.27032384 12.76503714 1.37231445 17.29736328 C1.4156126 19.25859096 1.45729131 21.2198551 1.49731445 23.18115234 C1.55514099 26.00108828 1.61879984 28.82084161 1.68359375 31.640625 C1.70030624 32.51680481 1.71701874 33.39298462 1.73423767 34.29571533 C1.75418289 35.11626404 1.77412811 35.93681274 1.79467773 36.78222656 C1.81022202 37.50170471 1.8257663 38.22118286 1.84178162 38.96246338 C2.00996486 41.12832742 2.2352564 42.96093741 3 45 C3.99 45.33 4.98 45.66 6 46 C7.625 48.9375 7.625 48.9375 9 52 C9.33 52.66 9.66 53.32 10 54 C5.55776607 52.11238227 3.59231012 49.65868774 1.22167969 45.51269531 C-1.5553427 37.52792351 -0.5963892 28.71956286 -0.375 20.375 C-0.34486111 18.39717603 -0.31749224 16.41930781 -0.29296875 14.44140625 C-0.22728775 9.62649992 -0.12398362 4.81374349 0 0 Z " fill="#B5D5E4" transform="translate(119,459)"/>
<path d="M0 0 C-3.5463782 1.97021011 -6.92231424 3 -11 3 C-11.350625 3.639375 -11.70125 4.27875 -12.0625 4.9375 C-15.08989881 8.16021486 -18.74423701 7.8215613 -23 8 C-17.0103364 1.33859843 -8.71502545 -0.65773777 0 0 Z " fill="#C3E2F0" transform="translate(170,122)"/>
<path d="M0 0 C6.46498449 0.16576883 10.30435802 4.00348694 15 8 C14.01 8.495 14.01 8.495 13 9 C12.01 8.67 11.02 8.34 10 8 C10 7.34 10 6.68 10 6 C7.03 5.505 7.03 5.505 4 5 C4 4.34 4 3.68 4 3 C2.68 2.67 1.36 2.34 0 2 C0 1.34 0 0.68 0 0 Z " fill="#95CBE3" transform="translate(248,126)"/>
<path d="M0 0 C5.65394631 -0.34615998 9.03006806 0.56574762 14 3 C14 3.33 14 3.66 14 4 C7.07 3.505 7.07 3.505 0 3 C0 2.01 0 1.02 0 0 Z " fill="#90C9E3" transform="translate(234,122)"/>
<path d="M0 0 C5.68357313 2.24699403 7.79843579 5.00932638 11 10 C10.67 10.66 10.34 11.32 10 12 C9.01 11.34 8.02 10.68 7 10 C7 9.01 7 8.02 7 7 C6.401875 6.731875 5.80375 6.46375 5.1875 6.1875 C3.00152146 5.00082594 1.58667406 3.90400887 0 2 C0 1.34 0 0.68 0 0 Z " fill="#97C9E0" transform="translate(264,137)"/>
<path d="M0 0 C1.11841368 2.08770553 1.9708176 3.85408801 2.4375 6.1875 C2.623125 6.785625 2.80875 7.38375 3 8 C3.99 8.33 4.98 8.66 6 9 C7.625 11.9375 7.625 11.9375 9 15 C9.33 15.66 9.66 16.32 10 17 C6.22670659 15.5316967 4.79452792 13.63118717 2.75 10.1875 C2.22921875 9.33542969 1.7084375 8.48335938 1.171875 7.60546875 C-0.07939586 4.82347654 -0.23793275 3.01201233 0 0 Z " fill="#CAE7F3" transform="translate(119,496)"/>
<path d="M0 0 C-2 3 -2 3 -4.1640625 3.51171875 C-5.38222656 3.59873047 -5.38222656 3.59873047 -6.625 3.6875 C-7.44226563 3.75324219 -8.25953125 3.81898438 -9.1015625 3.88671875 C-9.72804687 3.92410156 -10.35453125 3.96148437 -11 4 C-7.65667474 -0.27945633 -5.29105716 -0.4070044 0 0 Z " fill="#ACD6E9" transform="translate(158,126)"/>
<path d="M0 0 C1.18234854 3.69483919 1.2804701 7.14353614 1 11 C-0.515625 12.71484375 -0.515625 12.71484375 -2 14 C-1.85866501 12.22880197 -1.71176792 10.45804713 -1.5625 8.6875 C-1.48128906 7.70136719 -1.40007812 6.71523437 -1.31640625 5.69921875 C-1 3 -1 3 0 0 Z " fill="#AAD4E6" transform="translate(122,158)"/>
<path d="M0 0 C0.53625 0.2475 1.0725 0.495 1.625 0.75 C-3.79038462 4.81153846 -3.79038462 4.81153846 -6.75 4.5 C-7.28625 4.2525 -7.8225 4.005 -8.375 3.75 C-2.95961538 -0.31153846 -2.95961538 -0.31153846 0 0 Z " fill="#83C0DC" transform="translate(151.375,129.25)"/>
<path d="M0 0 C0.99 0.66 1.98 1.32 3 2 C2.75 4.375 2.75 4.375 2 7 C-0.0625 8.3125 -0.0625 8.3125 -2 9 C-1.67 7.88625 -1.34 6.7725 -1 5.625 C0.088643 2.30540283 0.088643 2.30540283 0 0 Z " fill="#92CAE4" transform="translate(275,504)"/>
<path d="M0 0 C0.66 0 1.32 0 2 0 C1.625 1.9375 1.625 1.9375 1 4 C0.01 4.495 0.01 4.495 -1 5 C-1.33 5.99 -1.66 6.98 -2 8 C-2.66 8 -3.32 8 -4 8 C-2.87548273 5.0280615 -1.77706209 2.66559313 0 0 Z " fill="#B9DFEA" transform="translate(130,144)"/>
</svg>
