<?xml version="1.0" encoding="UTF-8"?>
<svg version="1.1" xmlns="http://www.w3.org/2000/svg" width="400" height="367">
<path d="M0 0 C0.71630585 -0.00794586 1.43261169 -0.01589172 2.17062378 -0.02407837 C17.58470374 -0.15524608 31.71292385 2.08972217 45.9375 8.375 C46.89398438 8.71273438 47.85046875 9.05046875 48.8359375 9.3984375 C58.28544537 13.34234975 61.48394264 21.53064763 65.83691406 30.21484375 C72.6415354 43.57049805 81.63788926 52.36311898 95.9375 57.375 C99.64038117 58.3608185 103.37364923 59.15926242 107.125 59.9375 C119.85744716 62.5928156 127.89776889 66.89148709 137.37109375 75.93359375 C139.57550253 78.03063406 141.83141778 79.9547249 144.1875 81.875 C151.17442574 87.99934231 155.97649512 95.05024954 156.9375 104.375 C157.06556078 106.43731222 157.19041814 108.49982521 157.3125 110.5625 C157.968039 118.92590883 162.11043415 123.02498105 168.2734375 128.3046875 C178.83892839 136.51540623 191.102757 142.15299137 203.1171875 147.89453125 C216.50739526 154.62672712 223.52965467 166.8974938 228.55078125 180.58203125 C236.20000084 203.9072377 233.50628797 230.46030729 222.9375 252.375 C222.51984375 253.27347656 222.1021875 254.17195312 221.671875 255.09765625 C218.88195629 260.66947667 215.48855944 265.43504383 211.5 270.1875 C210.83653564 270.97821899 210.83653564 270.97821899 210.15966797 271.78491211 C203.99747201 278.88230139 198.32162524 283.12071619 189.3046875 285.9609375 C188.39099396 286.2664151 187.47730042 286.5718927 186.53591919 286.8866272 C182.66689435 288.17960023 178.78581917 289.43449681 174.90527344 290.69238281 C150.32555659 298.71348323 132.57062253 310.76677485 118.23828125 332.8828125 C115.39161649 337.24778461 112.39400614 341.50306951 109.375 345.75 C108.84487305 346.51119141 108.31474609 347.27238281 107.76855469 348.05664062 C103.0560938 354.64769806 98.03410411 359.85611679 90.5 363.125 C89.63503906 363.51171875 88.77007812 363.8984375 87.87890625 364.296875 C72.4150778 369.9648918 54.04448182 369.27910729 39.06005859 362.52929688 C30.4915608 358.49655897 23.08980991 353.6086646 15.9375 347.375 C15.32777344 346.89675781 14.71804687 346.41851562 14.08984375 345.92578125 C6.19811533 339.65194704 0.34906575 331.21112498 -5.375 323 C-5.78339111 322.43676025 -6.19178223 321.87352051 -6.61254883 321.29321289 C-12.70168923 312.30400521 -14.43471572 301.08127997 -16.85180664 290.66430664 C-21.64914337 270.06212382 -27.53835341 251.45314891 -45.53125 238.61328125 C-66.74902507 223.44495609 -83.43540153 202.93413794 -87.9375 176.625 C-91.8612223 157.88221939 -112.71207246 145.68987698 -127.33837891 135.84277344 C-144.7565501 124.06616059 -161.19976097 107.80868395 -167.5546875 87.02734375 C-169.03619172 79.28933324 -169.74022278 70.02201578 -165.453125 63.078125 C-156.77185362 52.44600612 -146.78960414 49.84420545 -133.6875 48 C-109.58850221 44.33311753 -85.32483907 36.49040424 -68.625 17.625 C-60.42683235 9.08607722 -45.2619253 6.23609097 -34.0625 3.375 C-32.24878906 2.89160156 -32.24878906 2.89160156 -30.3984375 2.3984375 C-20.34121309 0.17043955 -10.25781354 0.0596231 0 0 Z M-37.0625 44.375 C-39.0351309 47.6649027 -39.53450046 50.22683435 -38.9140625 54.09375 C-35.70628198 62.68707029 -27.02313252 68.57912291 -19.0625 72.375 C-6.13940011 77.91856423 5.56212266 78.86350264 18.9375 74.375 C25.72451542 71.27657992 30.59243964 66.4255588 34.3125 60 C35.63045107 54.46460551 35.59445136 49.99000543 33.4375 44.6875 C28.54672892 37.31714218 21.30501068 34.22219346 12.9375 32.375 C-2.92077964 29.25998079 -25.76899507 31.54147167 -37.0625 44.375 Z M-125.6875 84.0625 C-127.23379447 86.66308615 -127.49492691 88.28708573 -126.86328125 91.25390625 C-121.5305302 105.37919319 -108.90267123 115.57436155 -95.68359375 122.0234375 C-86.66540815 125.70737164 -78.40703136 127.99880674 -69.04296875 124.40234375 C-65.44463359 122.53575174 -62.86913683 119.98827366 -61.0625 116.375 C-60.29964475 109.90162831 -60.47724492 104.63597193 -64.39453125 99.28125 C-74.69364223 87.51083745 -88.57926218 81.78256707 -104.0625 80.375 C-111.5221131 79.97515474 -119.22580651 79.90855419 -125.6875 84.0625 Z M47.12109375 102.29296875 C42.71692995 107.77960173 40.65400074 112.95233864 40.9375 120.0625 C42.21387046 129.60627003 47.27410666 137.83341336 54.234375 144.33203125 C64.41601982 152.0271183 75.19558239 155.46671877 87.9375 154.375 C97.87364266 152.1610407 105.89064384 147.06145136 111.375 138.4375 C116.09450381 129.78289745 117.22459605 121.04234377 115 111.4375 C112.52062374 103.94089536 106.79023874 97.54749408 99.8125 93.875 C82.98430684 86.39580304 60.1367792 88.54952454 47.12109375 102.29296875 Z M-53.0625 160.375 C-56.4512645 167.36214329 -55.89733609 174.71173149 -53.4375 181.9375 C-47.30196017 196.98774404 -36.40930384 210.38120786 -21.53515625 217.3359375 C-14.07649493 220.47022488 -6.89380172 221.49129096 0.91796875 218.65625 C7.34217246 215.36615009 12.24743495 209.5951415 14.46484375 202.73046875 C16.51182814 192.52938125 14.91409496 183.11949845 9.65234375 174.1953125 C1.76380923 162.90086475 -10.11133666 155.04922082 -23.75390625 152.62109375 C-34.92574139 151.43018747 -44.90083327 152.01426822 -53.0625 160.375 Z M122.69921875 182.96875 C116.2905784 191.72201486 114.87123596 202.71411331 116.4375 213.3125 C119.38727727 225.32649352 126.36077156 237.7087277 137.0390625 244.28515625 C146.79978527 249.30800994 155.73204741 251.30248518 166.5 247.9375 C176.94901911 243.69818367 184.72501666 234.78127188 189.15234375 224.57421875 C193.81926105 212.3007245 194.30787052 200.85941693 189.9375 188.375 C185.48568649 178.65312688 178.94458101 172.23538141 169.11328125 168.1015625 C151.16383393 162.10767165 134.41208223 169.16183823 122.69921875 182.96875 Z M18.5625 254.0625 C12.00607387 267.4275225 13.34541219 279.66096885 17.9375 293.375 C22.88013847 306.42448941 31.44614441 317.67411876 43.828125 324.40234375 C50.15167923 327.19139104 57.02093999 327.60820257 63.6171875 325.53125 C73.48628844 321.09165444 78.06205379 314.1170081 81.9921875 304.3046875 C86.0070895 291.86180939 84.12803861 279.00304212 78.8125 267.25 C73.29392367 257.00356872 65.08037866 249.36602945 54.140625 245.34765625 C40.73517649 241.32972486 28.11535708 243.25268804 18.5625 254.0625 Z " fill="#DBE5FE" transform="translate(168.0625,-0.375)"/>
<path d="M0 0 C0.72583282 -0.00139984 1.45166565 -0.00279968 2.19949341 -0.00424194 C17.14226848 0.01939421 35.85180941 0.86241758 48.1875 10.4375 C51.87529675 14.41375937 54.17577271 18.09355369 56.4375 23.0625 C64.96362245 40.79928962 78.08091499 51.42086775 96.5 58.125 C101.66184058 59.75159093 107.00915709 60.54353479 112.34375 61.3984375 C121.25283561 63.80678788 127.47170045 69.05785839 134 75.375 C134.73669922 76.06529297 135.47339844 76.75558594 136.23242188 77.46679688 C146.21925535 86.9845108 146.21925535 86.9845108 146.65625 93.4609375 C146.67889155 94.91131902 146.68894286 96.36194248 146.6875 97.8125 C146.89381592 104.21305977 147.18883573 109.18851593 151.1875 114.4375 C151.67605469 115.12457031 152.16460937 115.81164062 152.66796875 116.51953125 C164.25235759 131.12148717 183.11125952 138.8567506 199.39526367 146.98632812 C210.48710321 152.75094246 214.91774819 162.78683432 219.1796875 174.171875 C224.52193233 191.48240476 224.26286206 211.34699552 218.1875 228.4375 C217.76339844 229.63246094 217.33929688 230.82742187 216.90234375 232.05859375 C213.53926668 240.61148891 209.07238362 248.38064316 203.1875 255.4375 C202.58905273 256.21786621 201.99060547 256.99823242 201.37402344 257.80224609 C193.62744443 266.81604399 183.99335603 269.22825659 172.9375 272.5625 C137.78415031 283.38618048 118.41276552 303.17915627 98.9375 333.95703125 C94.23794105 341.11406789 89.15759989 344.38760844 81.1875 347.4375 C80.29804688 347.81261719 79.40859375 348.18773437 78.4921875 348.57421875 C73.79124892 349.80224171 69.27462972 349.72720284 64.4375 349.6875 C63.47972656 349.69523437 62.52195313 349.70296875 61.53515625 349.7109375 C60.16423828 349.70707031 60.16423828 349.70707031 58.765625 349.703125 C57.51894043 349.69974121 57.51894043 349.69974121 56.24707031 349.69628906 C54.1875 349.4375 54.1875 349.4375 52.1875 347.4375 C53.67629793 345.94870207 55.1699495 346.14933053 57.25 345.875 C72.0175906 342.77822993 80.1205562 336.63171234 88.30834961 324.15136719 C89.42635694 322.40312246 90.5361898 320.64961934 91.63720703 318.890625 C93.81227779 315.44887524 96.13030007 312.12215761 98.5 308.8125 C99.09035034 307.97936279 99.09035034 307.97936279 99.69262695 307.12939453 C102.97558921 302.56663343 106.62186596 298.41578288 110.47265625 294.328125 C112.24762733 292.5419581 112.24762733 292.5419581 113.1875 290.4375 C112.259375 290.499375 111.33125 290.56125 110.375 290.625 C107.1875 290.4375 107.1875 290.4375 105.375 289.25 C103.91211964 287.01718261 103.54244045 285.06405933 103.1875 282.4375 C102.8575 282.4375 102.5275 282.4375 102.1875 282.4375 C101.84929834 280.8551994 101.51714061 279.27160625 101.1875 277.6875 C101.001875 276.80578125 100.81625 275.9240625 100.625 275.015625 C100.1875 272.4375 100.1875 272.4375 100.1875 268.4375 C98.2075 270.0875 96.2275 271.7375 94.1875 273.4375 C93.82398438 272.39851563 93.46046875 271.35953125 93.0859375 270.2890625 C86.84365406 252.82241116 78.96437159 240.25146649 62.25 231.125 C53.54026174 227.13230051 44.40283065 226.0834496 34.92578125 225.6484375 C32.1875 225.4375 32.1875 225.4375 31.1875 224.4375 C29.00457226 224.20268307 26.81546826 224.02386677 24.625 223.875 C23.42746094 223.79121094 22.22992188 223.70742187 20.99609375 223.62109375 C20.06925781 223.56050781 19.14242187 223.49992188 18.1875 223.4375 C17.8575 222.4475 17.5275 221.4575 17.1875 220.4375 C17.86296875 219.92960938 18.5384375 219.42171875 19.234375 218.8984375 C24.20835137 215.06013782 27.92957418 211.78049835 31.1875 206.4375 C32.1775 206.1075 33.1675 205.7775 34.1875 205.4375 C34.5175 207.0875 34.8475 208.7375 35.1875 210.4375 C51.92174862 211.74429599 66.6700922 201.63937138 79.04296875 191.27734375 C79.75066406 190.67019531 80.45835937 190.06304687 81.1875 189.4375 C81.84363281 188.90253906 82.49976563 188.36757812 83.17578125 187.81640625 C87.00064465 184.66314627 90.12423085 181.3362062 93.1875 177.4375 C94.75339427 180.56928854 94.49560447 183.87650246 94.5625 187.3125 C94.61857422 188.39337891 94.61857422 188.39337891 94.67578125 189.49609375 C94.7109375 191.6171875 94.7109375 191.6171875 94.1875 195.4375 C91.7578125 197.73046875 91.7578125 197.73046875 89.1875 199.4375 C88.17220459 201.76421865 87.17261802 204.0978447 86.1875 206.4375 C81.78422652 211.55481783 77.36715564 215.43237449 70.5 216 C69.75363281 216.02191406 69.00726563 216.04382813 68.23828125 216.06640625 C65.65208683 216.53438429 64.74799262 217.35351944 63.1875 219.4375 C63.18906224 222.02867313 63.18906224 222.02867313 64.1875 224.4375 C68.01470015 226.98896677 69.6186836 226.87262537 74.1875 226.4375 C82.94298789 223.74989771 89.45203958 219.49623685 95.671875 212.828125 C97.1875 211.4375 97.1875 211.4375 99.1875 211.4375 C100.55861356 213.41431427 101.84638538 215.40236475 103.125 217.4375 C107.7540794 224.48918538 113.44548113 229.72536065 121.1640625 233.37109375 C123.9735014 234.85174398 126.27402888 236.82776682 128.75 238.8125 C134.19418783 243.04827573 139.58064514 245.53363788 146.1875 247.4375 C147.1775 247.7675 148.1675 248.0975 149.1875 248.4375 C163.28728592 249.39093156 174.65784757 246.54453666 185.8125 237.75 C196.72348196 227.87695368 201.65042493 214.75701964 202.4453125 200.37890625 C202.92234479 187.22348173 200.21044333 177.07614266 192.1875 166.4375 C191.589375 165.550625 190.99125 164.66375 190.375 163.75 C182.33177802 155.24716534 170.21762258 149.98693844 158.58740234 149.27929688 C155.93033678 149.24214196 153.28178902 149.26182024 150.625 149.3125 C149.71169922 149.32152344 148.79839844 149.33054688 147.85742188 149.33984375 C145.63382681 149.36312747 143.41081323 149.3958229 141.1875 149.4375 C142.1775 148.4475 143.1675 147.4575 144.1875 146.4375 C131.63271084 145.89858218 122.43969104 147.71381694 111.59765625 154.1328125 C108.00192979 156.07928355 104.91962704 156.56415805 100.859375 156.53515625 C100.06015625 156.53193359 99.2609375 156.52871094 98.4375 156.52539062 C97.6125 156.51701172 96.7875 156.50863281 95.9375 156.5 C95.09703125 156.49548828 94.2565625 156.49097656 93.390625 156.48632812 C91.32288599 156.47457961 89.25518376 156.45664522 87.1875 156.4375 C87.5175 155.7775 87.8475 155.1175 88.1875 154.4375 C90.14584202 153.78767309 92.13101867 153.21798745 94.125 152.6875 C105.79328929 149.20233263 114.48077943 143.41082515 120.7578125 132.77734375 C125.80265457 122.99035013 126.85891067 112.23070397 124.5390625 101.4140625 C120.76850319 91.19810266 113.5950268 83.71120846 104.1875 78.4375 C94.34160786 73.99365588 84.62656363 72.29775043 73.91015625 71.68359375 C71.1875 71.4375 71.1875 71.4375 69.1875 70.4375 C53.51624312 69.42161619 39.84849019 71.27066146 27.1875 81.4375 C24.96953774 84.01255815 23.07302687 86.60920969 21.1875 89.4375 C20.8575 89.1075 20.5275 88.7775 20.1875 88.4375 C3.76201806 86.50509036 -16.3538967 99.70985866 -28.8125 109.4375 C-29.5859375 110.02402344 -30.359375 110.61054687 -31.15625 111.21484375 C-34.58730365 113.9753922 -36.52951047 115.53859209 -37.875 119.8125 C-38.11633652 122.36368859 -38.11633652 122.36368859 -36.8125 123.4375 C-21.58393135 125.01286917 -5.32541337 116.05016932 6.46484375 106.99609375 C9.08779163 104.85900736 11.64293179 102.66666109 14.1875 100.4375 C15.84804862 99.09655488 17.51302764 97.76101723 19.1875 96.4375 C19.17009766 97.29021484 19.17009766 97.29021484 19.15234375 98.16015625 C19.09526806 103.04420484 19.36793228 107.62253965 20.1875 112.4375 C19.589375 112.80875 18.99125 113.18 18.375 113.5625 C15.99140076 115.34997548 15.99140076 115.34997548 14.8125 118.3125 C12.47870279 122.80057156 9.25877832 125.34735352 4.8125 127.6875 C2.47795592 128.3545126 0.40252794 128.67776725 -2 128.9375 C-5.82674714 129.0456437 -5.82674714 129.0456437 -7.8125 131.4375 C-7.7174261 133.4855428 -7.7174261 133.4855428 -6.8125 135.4375 C-3.77724514 137.46100324 -2.61823798 137.75874018 0.875 138.0625 C1.68324219 138.13726562 2.49148437 138.21203125 3.32421875 138.2890625 C4.24654297 138.36253906 4.24654297 138.36253906 5.1875 138.4375 C5.1875 138.7675 5.1875 139.0975 5.1875 139.4375 C2.11132812 139.73046875 2.11132812 139.73046875 -0.96484375 140.0234375 C-1.57457031 140.16007813 -2.18429688 140.29671875 -2.8125 140.4375 C-3.1425 141.0975 -3.4725 141.7575 -3.8125 142.4375 C-4.6890625 142.05078125 -5.565625 141.6640625 -6.46875 141.265625 C-14.84286189 137.75950115 -23.10512208 135.55912623 -32.0625 134.0625 C-33.04283203 133.89524414 -34.02316406 133.72798828 -35.03320312 133.55566406 C-47.07463479 131.68299994 -60.202144 130.76117327 -70.8125 137.8125 C-74.80624191 141.30702417 -76.86006156 144.10975034 -77.32421875 149.42578125 C-77.39658671 150.86656162 -77.45490062 152.30810845 -77.5 153.75 C-77.53416016 154.49056641 -77.56832031 155.23113281 -77.60351562 155.99414062 C-77.68543554 157.80808164 -77.75065822 159.62276353 -77.8125 161.4375 C-80.77595087 158.77225802 -82.75143974 155.62684943 -84.9375 152.3125 C-93.98927046 139.08116179 -106.20806685 130.78117165 -119.23095703 121.76269531 C-136.56735195 109.75324397 -153.23767423 95.11419124 -157.8125 73.4375 C-158.39573155 68.45352126 -158.39784617 63.86952201 -155.8125 59.4375 C-151.7827259 54.71690748 -147.29867665 52.18058832 -141.8125 49.4375 C-139.43847499 49.36633618 -137.06249323 49.35340915 -134.6875 49.375 C-133.40617187 49.38402344 -132.12484375 49.39304688 -130.8046875 49.40234375 C-129.81726563 49.41394531 -128.82984375 49.42554688 -127.8125 49.4375 C-129.65322191 53.11894382 -134.32632515 54.20485619 -137.9296875 55.90234375 C-142.48555986 58.32843838 -144.22694878 61.05330446 -146.8125 65.4375 C-147.8025 66.4275 -147.8025 66.4275 -148.8125 67.4375 C-149.96147259 76.48565913 -146.4488207 82.49383543 -141.171875 89.66796875 C-137.1396409 94.53868144 -131.22307531 101.45542359 -124.84765625 102.875 C-121.89019407 103.69241757 -120.22300974 105.47499669 -117.9375 107.5 C-103.75474359 119.35988152 -88.4715954 125.99127467 -69.78125 124.65625 C-64.50244697 124.06971633 -60.59596882 122.51206373 -57.11328125 118.4609375 C-56.56027344 117.75195312 -56.00726563 117.04296875 -55.4375 116.3125 C-52.77216715 113.01399984 -51.27468929 111.98602184 -47.0625 111.5 C-32.13691909 109.7295173 -15.79360188 99.54441717 -6.0625 88.375 C-4.94875 86.9209375 -4.94875 86.9209375 -3.8125 85.4375 C-4.72128906 85.26734375 -4.72128906 85.26734375 -5.6484375 85.09375 C-8.875097 84.11526842 -10.52728775 81.84298658 -12.8125 79.4375 C-15.10879994 78.28935003 -16.88948086 78.12980191 -19.4375 77.875 C-20.66339844 77.74931641 -20.66339844 77.74931641 -21.9140625 77.62109375 C-22.54054687 77.56050781 -23.16703125 77.49992187 -23.8125 77.4375 C-23.8125 77.1075 -23.8125 76.7775 -23.8125 76.4375 C-20.3475 75.9425 -20.3475 75.9425 -16.8125 75.4375 C-17.4725 74.7775 -18.1325 74.1175 -18.8125 73.4375 C-18.16023437 73.57027344 -17.50796875 73.70304687 -16.8359375 73.83984375 C-15.52496094 74.10474609 -15.52496094 74.10474609 -14.1875 74.375 C-13.32898438 74.54902344 -12.47046875 74.72304687 -11.5859375 74.90234375 C3.89413952 77.88934453 18.74932577 77.37843664 32.1875 68.4375 C37.69671989 64.62342469 40.28878378 60.31577313 43.1875 54.4375 C43.5175 53.7775 43.8475 53.1175 44.1875 52.4375 C45.01473919 44.06039432 45.17396931 36.68774536 40.1484375 29.5859375 C31.35157312 19.94793868 18.95646813 15.43149153 6.1875 14.4375 C-1.81131655 14.22322177 -9.81280638 14.31135248 -17.8125 14.4375 C-16.4925 13.7775 -15.1725 13.1175 -13.8125 12.4375 C-27.94318926 11.77397198 -42.21980506 12.65585934 -53.8125 21.4375 C-55.2665625 22.4584375 -55.2665625 22.4584375 -56.75 23.5 C-58.93004399 25.33042279 -58.93004399 25.33042279 -60.0625 27.875 C-62.73188837 31.78374725 -66.63656769 33.38017486 -70.8125 35.4375 C-69.4925 36.0975 -68.1725 36.7575 -66.8125 37.4375 C-67.47636719 37.47488281 -68.14023438 37.51226562 -68.82421875 37.55078125 C-69.70722656 37.61652344 -70.59023437 37.68226562 -71.5 37.75 C-72.37011719 37.80800781 -73.24023438 37.86601563 -74.13671875 37.92578125 C-77.25078501 38.52131801 -79.11430198 39.7890447 -81.8125 41.4375 C-84.33255889 42.34284427 -86.81433446 43.17239138 -89.375 43.9375 C-90.07810303 44.15180664 -90.78120605 44.36611328 -91.50561523 44.58691406 C-103.32922102 48.14647843 -114.41558377 50.66199144 -126.8125 50.4375 C-126.8125 49.7775 -126.8125 49.1175 -126.8125 48.4375 C-125.31976563 48.14359375 -125.31976563 48.14359375 -123.796875 47.84375 C-101.87238724 43.25465639 -78.20842168 34.27919411 -62.9375 17.25 C-53.75831791 7.78924791 -38.24007508 5.30660961 -25.8125 2.4375 C-24.70032104 2.15604126 -24.70032104 2.15604126 -23.56567383 1.86889648 C-15.78094754 0.059193 -7.95179775 -0.00146569 0 0 Z " fill="#DBE5FD" transform="translate(167.8125,8.5625)"/>
<path d="M0 0 C0.71630585 -0.00794586 1.43261169 -0.01589172 2.17062378 -0.02407837 C17.58470374 -0.15524608 31.71292385 2.08972217 45.9375 8.375 C46.89398438 8.71273438 47.85046875 9.05046875 48.8359375 9.3984375 C58.28544537 13.34234975 61.48394264 21.53064763 65.83691406 30.21484375 C72.6415354 43.57049805 81.63788926 52.36311898 95.9375 57.375 C99.64038117 58.3608185 103.37364923 59.15926242 107.125 59.9375 C119.85744716 62.5928156 127.89776889 66.89148709 137.37109375 75.93359375 C139.57550253 78.03063406 141.83141778 79.9547249 144.1875 81.875 C151.17442574 87.99934231 155.97649512 95.05024954 156.9375 104.375 C157.06556078 106.43731222 157.19041814 108.49982521 157.3125 110.5625 C157.968039 118.92590883 162.11043415 123.02498105 168.2734375 128.3046875 C178.83892839 136.51540623 191.102757 142.15299137 203.1171875 147.89453125 C216.50739526 154.62672712 223.52965467 166.8974938 228.55078125 180.58203125 C236.20000084 203.9072377 233.50628797 230.46030729 222.9375 252.375 C222.51984375 253.27347656 222.1021875 254.17195312 221.671875 255.09765625 C218.88195629 260.66947667 215.48855944 265.43504383 211.5 270.1875 C210.83653564 270.97821899 210.83653564 270.97821899 210.15966797 271.78491211 C203.99747201 278.88230139 198.32162524 283.12071619 189.3046875 285.9609375 C188.39099396 286.2664151 187.47730042 286.5718927 186.53591919 286.8866272 C182.66689435 288.17960023 178.78581917 289.43449681 174.90527344 290.69238281 C150.32555659 298.71348323 132.57062253 310.76677485 118.23828125 332.8828125 C115.39161649 337.24778461 112.39400614 341.50306951 109.375 345.75 C108.84487305 346.51119141 108.31474609 347.27238281 107.76855469 348.05664062 C103.0560938 354.64769806 98.03410411 359.85611679 90.5 363.125 C89.63503906 363.51171875 88.77007812 363.8984375 87.87890625 364.296875 C72.4150778 369.9648918 54.04448182 369.27910729 39.06005859 362.52929688 C30.4915608 358.49655897 23.08980991 353.6086646 15.9375 347.375 C15.32777344 346.89675781 14.71804687 346.41851562 14.08984375 345.92578125 C6.19811533 339.65194704 0.34906575 331.21112498 -5.375 323 C-5.78339111 322.43676025 -6.19178223 321.87352051 -6.61254883 321.29321289 C-12.70168923 312.30400521 -14.43471572 301.08127997 -16.85180664 290.66430664 C-21.64914337 270.06212382 -27.53835341 251.45314891 -45.53125 238.61328125 C-66.74902507 223.44495609 -83.43540153 202.93413794 -87.9375 176.625 C-91.8612223 157.88221939 -112.71207246 145.68987698 -127.33837891 135.84277344 C-144.7565501 124.06616059 -161.19976097 107.80868395 -167.5546875 87.02734375 C-169.03619172 79.28933324 -169.74022278 70.02201578 -165.453125 63.078125 C-156.77185362 52.44600612 -146.78960414 49.84420545 -133.6875 48 C-109.58850221 44.33311753 -85.32483907 36.49040424 -68.625 17.625 C-60.42683235 9.08607722 -45.2619253 6.23609097 -34.0625 3.375 C-32.24878906 2.89160156 -32.24878906 2.89160156 -30.3984375 2.3984375 C-20.34121309 0.17043955 -10.25781354 0.0596231 0 0 Z M-65.0625 28.375 C-75.78701075 38.63322767 -88.43306754 44.92218474 -102.0625 50.375 C-102.70364746 50.63498779 -103.34479492 50.89497559 -104.00537109 51.1628418 C-108.93807613 53.09751091 -113.8957032 54.41183555 -119.0625 55.5625 C-119.83722656 55.73974609 -120.61195312 55.91699219 -121.41015625 56.09960938 C-123.29315021 56.5296759 -125.17766954 56.953055 -127.0625 57.375 C-127.0625 58.035 -127.0625 58.695 -127.0625 59.375 C-118.6854666 59.89615185 -111.17782084 58.33271657 -103.0625 56.375 C-101.69561016 56.06897989 -100.32841508 55.76432042 -98.9609375 55.4609375 C-91.93904398 53.85732453 -85.7306898 51.92913244 -79.390625 48.4140625 C-75.43438114 46.64835635 -71.35014337 46.4753491 -67.0625 46.375 C-68.3825 45.715 -69.7025 45.055 -71.0625 44.375 C-70.38703125 44.01148438 -69.7115625 43.64796875 -69.015625 43.2734375 C-68.12359375 42.77070312 -67.2315625 42.26796875 -66.3125 41.75 C-65.43078125 41.26273438 -64.5490625 40.77546875 -63.640625 40.2734375 C-60.58581515 38.02398661 -59.15278331 35.52049377 -57.0625 32.375 C-44.76970217 21.97620362 -29.63688948 20.64368084 -14.0625 21.375 C-15.3825 22.035 -16.7025 22.695 -18.0625 23.375 C-17.08978149 23.35143433 -17.08978149 23.35143433 -16.09741211 23.32739258 C3.3935533 22.9184188 22.38423339 22.74347144 37.9375 36.375 C43.71870707 42.95880415 44.76737657 49.26878062 44.39453125 57.87890625 C43.79505886 62.46461385 42.64022572 65.65540718 39.9375 69.375 C39.23625 70.40625 38.535 71.4375 37.8125 72.5 C30.45387541 80.8095853 18.51304061 84.89283585 7.74609375 85.578125 C0.29673948 85.68170814 -6.23223164 84.92717063 -13.41796875 82.93359375 C-16.15080496 82.12362307 -16.15080496 82.12362307 -19.0625 83.375 C-18.4025 83.705 -17.7425 84.035 -17.0625 84.375 C-20.5275 84.87 -20.5275 84.87 -24.0625 85.375 C-24.0625 85.705 -24.0625 86.035 -24.0625 86.375 C-23.48242188 86.40078125 -22.90234375 86.4265625 -22.3046875 86.453125 C-15.24596498 86.96563951 -10.97679187 89.21499353 -6.0625 94.375 C-5.4025 94.705 -4.7425 95.035 -4.0625 95.375 C-14.23744426 106.97190852 -31.42774457 118.43034066 -47.0625 120.3125 C-52.42278462 121.01613618 -54.13751932 123.26284528 -57.36328125 127.3984375 C-60.84596882 131.44956373 -64.75244697 133.00721633 -70.03125 133.59375 C-89.03265795 134.95099342 -103.46827748 128.20516522 -118.0625 116.375 C-122.5258564 112.9213904 -122.5258564 112.9213904 -127.5625 110.4375 C-136.66075999 106.5707395 -144.44474891 96.17433611 -148.4375 87.38671875 C-149.58453659 83.69469471 -149.82303614 80.17015061 -149.0625 76.375 C-147.25 74.125 -147.25 74.125 -145.0625 72.375 C-144.62421875 71.57964844 -144.1859375 70.78429687 -143.734375 69.96484375 C-141.82392335 67.00542916 -140.17476897 65.8981223 -137.125 64.1875 C-135.84302734 63.45466797 -135.84302734 63.45466797 -134.53515625 62.70703125 C-132.39554192 61.55441121 -130.24510554 60.44351455 -128.0625 59.375 C-128.0625 59.045 -128.0625 58.715 -128.0625 58.375 C-139.74665643 57.64475959 -139.74665643 57.64475959 -150.0625 62.375 C-152.89709483 64.87458655 -152.89709483 64.87458655 -155.0625 67.375 C-155.7225 68.035 -156.3825 68.695 -157.0625 69.375 C-159.83613275 77.96431431 -157.71871404 86.39352244 -154.0625 94.375 C-145.41683956 109.98986544 -133.88384658 120.99147298 -119.23632812 130.89306641 C-82.5901935 155.87532575 -82.5901935 155.87532575 -77.42578125 175.8359375 C-77.13933673 177.4599991 -76.86611612 179.08644285 -76.60546875 180.71484375 C-72.62910869 200.19614736 -59.50953412 217.35535095 -44.0625 229.375 C-42.22404405 230.54587478 -40.36949195 231.69184488 -38.5 232.8125 C-17.40354307 245.79722067 -10.79791404 271.08675484 -5.359375 293.61328125 C-4.44985163 297.47916466 -3.72453917 301.33417517 -3.08984375 305.25390625 C-2.35354652 309.42513822 -1.32111888 312.47355859 1.125 316 C1.75019531 316.90878906 2.37539062 317.81757813 3.01953125 318.75390625 C3.65246094 319.61886719 4.28539062 320.48382813 4.9375 321.375 C5.49824219 322.14714844 6.05898437 322.91929687 6.63671875 323.71484375 C8.34891117 325.98579361 10.12168091 328.18611955 11.9375 330.375 C12.60394531 331.18839844 13.27039063 332.00179688 13.95703125 332.83984375 C24.21900462 344.83988108 39.95347314 356.84219603 56.21606445 358.62475586 C69.07822147 359.43920243 82.31214214 359.09091151 92.4921875 350.125 C95.36803168 346.8908238 97.98885569 343.53936382 100.5625 340.0625 C101.34355103 339.01787598 101.34355103 339.01787598 102.14038086 337.95214844 C105.25473302 333.75444091 108.23960997 329.49045959 111.14526367 325.14624023 C124.80991206 304.75885079 142.0815758 290.73971643 165.79296875 283.453125 C166.5542659 283.21833939 167.31556305 282.98355377 168.09992981 282.74165344 C171.22570358 281.78772437 174.35357478 280.84552069 177.49584961 279.94726562 C189.06556402 276.60780086 196.29850993 272.89369563 203.9375 263.375 C204.72217651 262.40771973 204.72217651 262.40771973 205.52270508 261.42089844 C211.67264305 253.25630485 215.68929986 243.99466965 218.9375 234.375 C219.2778125 233.41078125 219.618125 232.4465625 219.96875 231.453125 C225.91538778 211.08038446 222.78551008 188.68974816 213.16796875 170.19921875 C212.43903353 168.91610098 211.695005 167.64146119 210.9375 166.375 C210.53668213 165.69252197 210.13586426 165.01004395 209.72290039 164.30688477 C205.66141225 158.13356823 200.66438683 155.78916177 194 152.9375 C191.93112584 151.99891054 189.8647129 151.05487731 187.80078125 150.10546875 C186.79740723 149.64575684 185.7940332 149.18604492 184.76025391 148.71240234 C170.47527736 141.94427386 155.25400292 132.522121 147.76953125 118.12890625 C146.86664421 115.14047732 146.74414326 112.40629118 146.71240234 109.29638672 C146.6363305 102.47229461 146.53907504 97.19015447 141.66015625 91.98828125 C140.80744141 91.18970703 140.80744141 91.18970703 139.9375 90.375 C139.42058594 89.81167969 138.90367187 89.24835938 138.37109375 88.66796875 C128.72094779 78.3667286 119.28745047 71.33683514 105.3125 69.0625 C93.38475464 67.10591153 82.52355694 61.72615735 72.9375 54.375 C71.9578125 53.62476563 70.978125 52.87453125 69.96875 52.1015625 C66.82496553 49.45224499 64.63443566 46.36393434 62.5 42.875 C62.11803467 42.26986572 61.73606934 41.66473145 61.3425293 41.04125977 C58.76312162 36.89645557 56.48193222 32.65291686 54.25 28.3125 C49.27802537 19.03223062 43.14888648 16.00314789 33.24707031 13.00854492 C22.52772382 10.06808994 12.29908162 8.76837919 1.1875 8.8125 C0.47805237 8.81231873 -0.23139526 8.81213745 -0.96234131 8.81195068 C-22.26473766 8.88869142 -49.53071006 12.42343195 -65.0625 28.375 Z M-37.0625 44.375 C-39.0351309 47.6649027 -39.53450046 50.22683435 -38.9140625 54.09375 C-35.70628198 62.68707029 -27.02313252 68.57912291 -19.0625 72.375 C-6.13940011 77.91856423 5.56212266 78.86350264 18.9375 74.375 C25.72451542 71.27657992 30.59243964 66.4255588 34.3125 60 C35.63045107 54.46460551 35.59445136 49.99000543 33.4375 44.6875 C28.54672892 37.31714218 21.30501068 34.22219346 12.9375 32.375 C-2.92077964 29.25998079 -25.76899507 31.54147167 -37.0625 44.375 Z M-125.6875 84.0625 C-127.23379447 86.66308615 -127.49492691 88.28708573 -126.86328125 91.25390625 C-121.5305302 105.37919319 -108.90267123 115.57436155 -95.68359375 122.0234375 C-86.66540815 125.70737164 -78.40703136 127.99880674 -69.04296875 124.40234375 C-65.44463359 122.53575174 -62.86913683 119.98827366 -61.0625 116.375 C-60.29964475 109.90162831 -60.47724492 104.63597193 -64.39453125 99.28125 C-74.69364223 87.51083745 -88.57926218 81.78256707 -104.0625 80.375 C-111.5221131 79.97515474 -119.22580651 79.90855419 -125.6875 84.0625 Z " fill="#442D62" transform="translate(168.0625,-0.375)"/>
<path d="M0 0 C2.10612995 0.21145042 4.212901 0.41819981 6.32226562 0.59448242 C21.88419684 1.92355708 35.42252576 5.62847031 46.4375 17.4375 C54.93828738 27.64541272 56.08319314 38.07732435 55 51 C53.40277059 58.9957689 49.46476141 65.06200152 44 71 C43.42636719 71.62777344 42.85273438 72.25554687 42.26171875 72.90234375 C35.63677101 79.38542965 26.1097554 83.52459705 17 85 C19.6881249 85.08164159 22.373723 85.14079668 25.0625 85.1875 C25.81466797 85.21263672 26.56683594 85.23777344 27.34179688 85.26367188 C34.49950069 85.35662907 39.64258541 82.78453746 45.875 79.4375 C54.55972262 75.10166855 63.31209198 74.05483824 73 75 C73.66 75.66 74.32 76.32 75 77 C74.67 77.33 74.34 77.66 74 78 C74.98097656 77.95359375 75.96195313 77.9071875 76.97265625 77.859375 C90.59248571 77.41371554 103.051049 79.18065469 114 88 C115.03125 88.7425 116.0625 89.485 117.125 90.25 C125.4130481 98.17769818 131.5520268 109.02263108 132.203125 120.6171875 C132.54392775 138.76975648 128.90216714 153.43496854 116.16796875 167.03125 C106.44459369 175.86112573 94.61161482 179.42557071 81.72265625 179.265625 C69.2313064 178.37432197 60.44361587 171.71347813 50.83203125 164.3359375 C48.82302743 162.81059999 48.82302743 162.81059999 45.6875 161.1875 C37.87281694 156.73862926 32.57750576 150.7358456 28 143 C28 142.34 28 141.68 28 141 C27.48050781 141.45890625 26.96101562 141.9178125 26.42578125 142.390625 C24.98060748 143.66216422 23.53117671 144.92887706 22.078125 146.19140625 C20.56194663 147.51093743 19.05840096 148.84502478 17.5625 150.1875 C11.26703744 154.64038815 3.75485269 157.80222614 -4 157 C-7 154.75 -7 154.75 -9 152 C-9 149.38164361 -8.3347168 148.41010346 -6.69921875 146.40625 C-4.59341912 144.66351927 -3.51110462 144.67276291 -0.8125 144.625 C4.40070071 144.18349114 8.08319766 142.47171117 12 139 C13.69657625 136.73445001 14.75454422 134.58316754 16 132 C18.73196853 127.19173538 18.73196853 127.19173538 20.578125 125.87109375 C22.87589137 122.84738471 22.31126005 119.44596799 22.1875 115.8125 C22.17396484 115.06291016 22.16042969 114.31332031 22.14648438 113.54101562 C22.11118539 111.69370233 22.05737917 109.84675934 22 108 C21.50113281 108.60585937 21.00226563 109.21171875 20.48828125 109.8359375 C9.01064452 123.22994805 -10.58907625 139.57033722 -28.86328125 141.265625 C-31.28227953 141.30668296 -33.59985184 141.30125316 -36 141 C-37 140 -37 140 -37.5 137.5 C-36.26159857 128.83119001 -27.56089592 122.16588815 -21 117 C-18.61547432 115.37852254 -16.2161017 113.81843662 -13.75 112.32421875 C-11.69538074 111.02896293 -11.69538074 111.02896293 -11 108 C-10.24332031 107.39671875 -9.48664063 106.7934375 -8.70703125 106.171875 C-5.7457244 103.79599245 -3.86467789 101.34971089 -1.6875 98.25 C-0.99011719 97.26515625 -0.29273438 96.2803125 0.42578125 95.265625 C0.94527344 94.51796875 1.46476562 93.7703125 2 93 C0.906875 93.495 -0.18625 93.99 -1.3125 94.5 C-5 96 -5 96 -8 96 C-8.33 95.34 -8.66 94.68 -9 94 C-18.15775819 95.1261968 -24.80328762 96.69673183 -31 104 C-32.25436187 106.63222962 -32.25436187 106.63222962 -33 109 C-39.37426409 110.32296047 -39.37426409 110.32296047 -41.9375 109 C-43.16521709 106.68900313 -43.78688247 104.72879663 -43.6640625 102.09375 C-41.20893892 94.35288977 -33.0751805 88.83166653 -26.27734375 85.11328125 C-20.8541499 82.46214875 -15.91801808 81.70213774 -10 81 C-9.67 80.67 -9.34 80.34 -9 80 C-9.97582031 79.38511719 -10.95164062 78.77023438 -11.95703125 78.13671875 C-13.24231655 77.32051568 -14.52746568 76.50409816 -15.8125 75.6875 C-16.45509766 75.28337891 -17.09769531 74.87925781 -17.75976562 74.46289062 C-18.38173828 74.06650391 -19.00371094 73.67011719 -19.64453125 73.26171875 C-20.21534424 72.90037842 -20.78615723 72.53903809 -21.37426758 72.16674805 C-23 71 -23 71 -24.50439453 69.44189453 C-26.45080022 67.56538914 -28.66748506 66.91708475 -31.14111328 65.91943359 C-34.40617642 64.3044838 -36.84639315 61.83208319 -39.4375 59.3125 C-39.97826172 58.80138672 -40.51902344 58.29027344 -41.07617188 57.76367188 C-42.39216133 56.51755796 -43.69725905 55.25995799 -45 54 C-45.46148437 54.51949219 -45.92296875 55.03898437 -46.3984375 55.57421875 C-52.28107967 61.86376305 -57.87089712 66.4282672 -66.64453125 67.40625 C-76.12220135 67.64050755 -76.12220135 67.64050755 -78.921875 65.59765625 C-80 64 -80 64 -79.8125 61.9375 C-79 60 -79 60 -77 58 C-75.26230699 57.64223967 -73.50845001 57.3604209 -71.75 57.125 C-66.03576942 56.167642 -62.19048064 54.51499629 -58.3125 50.0625 C-57.32461252 48.51010539 -56.39678693 46.91924326 -55.5 45.3125 C-54 43 -54 43 -51 42 C-51.33 41.01 -51.66 40.02 -52 39 C-53.1865126 34.91405167 -53.14865179 31.23657606 -53 27 C-53.886875 27.969375 -54.77375 28.93875 -55.6875 29.9375 C-67.53438904 41.68961393 -86.90014873 53.79760749 -104 54.3125 C-107.70736086 54.29263914 -107.70736086 54.29263914 -110 52 C-109.88759628 48.30600502 -109.35345889 46.43937874 -107.0234375 43.54296875 C-99.55939808 36.9045974 -91.74699492 31.77687829 -83 27 C-81.41445312 26.13181641 -81.41445312 26.13181641 -79.796875 25.24609375 C-70.76781994 20.53065793 -61.38202968 16.02056324 -51 17 C-50.67 17.33 -50.34 17.66 -50 18 C-49.69449219 17.50371094 -49.38898438 17.00742188 -49.07421875 16.49609375 C-42.98248272 7.45286871 -34.06002778 2.57053795 -23.6953125 -0.3515625 C-17.03265179 -1.52069747 -6.18481483 -3.09240741 0 0 Z M-23.81640625 22.91796875 C-28.22057005 28.40460173 -30.28349926 33.57733864 -30 40.6875 C-28.72362954 50.23127003 -23.66339334 58.45841336 -16.703125 64.95703125 C-6.52148018 72.6521183 4.25808239 76.09171877 17 75 C26.93614266 72.7860407 34.95314384 67.68645136 40.4375 59.0625 C45.15700381 50.40789745 46.28709605 41.66734377 44.0625 32.0625 C41.58312374 24.56589536 35.85273874 18.17249408 28.875 14.5 C12.04680684 7.02080304 -10.8007208 9.17452454 -23.81640625 22.91796875 Z M51.76171875 103.59375 C45.3530784 112.34701486 43.93373596 123.33911331 45.5 133.9375 C48.44977727 145.95149352 55.42327156 158.3337277 66.1015625 164.91015625 C75.86228527 169.93300994 84.79454741 171.92748518 95.5625 168.5625 C106.01151911 164.32318367 113.78751666 155.40627188 118.21484375 145.19921875 C122.88176105 132.9257245 123.37037052 121.48441693 119 109 C114.54818649 99.27812688 108.00708101 92.86038141 98.17578125 88.7265625 C80.22633393 82.73267165 63.47458223 89.78683823 51.76171875 103.59375 Z " fill="#B6CCF0" transform="translate(239,79)"/>
<path d="M0 0 C0 0.33 0 0.66 0 1 C-1.65 1.33 -3.3 1.66 -5 2 C-3.09541016 1.94779297 -3.09541016 1.94779297 -1.15234375 1.89453125 C15.76766946 1.56762233 31.19422696 2.91672352 45.375 13.25 C51.39457155 19.55621782 54.37709546 24.73585165 54.625 33.625 C54.35717688 39.67536768 53.60359749 44.1126209 50 49 C49.5875 49.60070312 49.175 50.20140625 48.75 50.8203125 C41.98306203 59.70191858 30.82016089 64.49423869 20 66 C10.17162102 66.63251944 1.49718418 65.42481298 -8 63 C-6.00883883 65.08544207 -6.00883883 65.08544207 -3.5 66.875 C-1.1385112 68.88226548 -0.11316374 70.1664923 1 73 C2.65 73 4.3 73 6 73 C-0.23043933 86.54826666 -18.66015545 94.95169799 -32 100 C-33.98911842 100.37558509 -35.99024355 100.69555941 -38 100.9375 C-43.36028462 101.64113618 -45.07501932 103.88784528 -48.30078125 108.0234375 C-51.78346882 112.07456373 -55.68994697 113.63221633 -60.96875 114.21875 C-79.97015795 115.57599342 -94.40577748 108.83016522 -109 97 C-113.42381042 93.55660016 -113.42381042 93.55660016 -118.4375 91.125 C-127.84250928 86.99597154 -136.20392939 76.19179826 -140.375 67.01171875 C-141.52203659 63.31969471 -141.76053614 59.79515061 -141 56 C-139.1875 53.75 -139.1875 53.75 -137 52 C-136.608125 51.21625 -136.21625 50.4325 -135.8125 49.625 C-132.10631653 44.25742394 -126.00336313 41.23800286 -120 39 C-121.65 38.67 -123.3 38.34 -125 38 C-125 37.67 -125 37.34 -125 37 C-122.69 37 -120.38 37 -118 37 C-118 37.66 -118 38.32 -118 39 C-108.1286329 38.23149088 -98.66011818 36.64754776 -89.0625 34.1875 C-87.64408813 33.83341064 -87.64408813 33.83341064 -86.19702148 33.47216797 C-80.45234376 31.94327345 -75.46654197 29.90876752 -70.28686523 26.98168945 C-67.69111091 25.86740226 -65.7961063 25.81816202 -63 26 C-62.505 24.515 -62.505 24.515 -62 23 C-60.07421875 21.82421875 -60.07421875 21.82421875 -57.6875 20.6875 C-53.31259938 18.39033431 -51.72864954 16.13431749 -49 12 C-43.25771601 7.08552703 -37.35301774 3.71449675 -30 2 C-28.71416016 1.69449219 -28.71416016 1.69449219 -27.40234375 1.3828125 C-18.31260021 -0.44263806 -9.22289545 -0.18445791 0 0 Z M-28 24 C-29.9726309 27.2899027 -30.47200046 29.85183435 -29.8515625 33.71875 C-26.64378198 42.31207029 -17.96063252 48.20412291 -10 52 C2.92309989 57.54356423 14.62462266 58.48850264 28 54 C34.78701542 50.90157992 39.65493964 46.0505588 43.375 39.625 C44.69295107 34.08960551 44.65695136 29.61500543 42.5 24.3125 C37.60922892 16.94214218 30.36751068 13.84719346 22 12 C6.14172036 8.88498079 -16.70649507 11.16647167 -28 24 Z M-116.625 63.6875 C-118.17129447 66.28808615 -118.43242691 67.91208573 -117.80078125 70.87890625 C-112.4680302 85.00419319 -99.84017123 95.19936155 -86.62109375 101.6484375 C-77.60290815 105.33237164 -69.34453136 107.62380674 -59.98046875 104.02734375 C-56.38213359 102.16075174 -53.80663683 99.61327366 -52 96 C-51.23714475 89.52662831 -51.41474492 84.26097193 -55.33203125 78.90625 C-65.63114223 67.13583745 -79.51676218 61.40756707 -95 60 C-102.4596131 59.60015474 -110.16330651 59.53355419 -116.625 63.6875 Z " fill="#DAE4FD" transform="translate(159,20)"/>
<path d="M0 0 C8.91700732 3.06370957 13.40838459 6.79799111 18 15 C18.39832031 15.69609375 18.79664063 16.3921875 19.20703125 17.109375 C21.73679132 21.84675341 23.56774636 26.82972175 25 32 C25.17063965 32.60980713 25.3412793 33.21961426 25.51708984 33.84790039 C29.48959508 49.52275877 28.39783949 67.8154235 23 83 C22.57589844 84.19496094 22.15179688 85.38992187 21.71484375 86.62109375 C18.35176668 95.17398891 13.88488362 102.94314316 8 110 C7.40155273 110.78036621 6.80310547 111.56073242 6.18652344 112.36474609 C-1.56005557 121.37854399 -11.19414397 123.79075659 -22.25 127.125 C-57.40334969 137.94868048 -76.77473448 157.74165627 -96.25 188.51953125 C-100.94955895 195.67656789 -106.02990011 198.95010844 -114 202 C-114.88945312 202.37511719 -115.77890625 202.75023437 -116.6953125 203.13671875 C-121.39625108 204.36474171 -125.91287028 204.28970284 -130.75 204.25 C-131.70777344 204.25773438 -132.66554687 204.26546875 -133.65234375 204.2734375 C-134.56628906 204.27085937 -135.48023438 204.26828125 -136.421875 204.265625 C-137.66855957 204.26224121 -137.66855957 204.26224121 -138.94042969 204.25878906 C-141 204 -141 204 -143 202 C-141.51120207 200.51120207 -140.0175505 200.71183053 -137.9375 200.4375 C-123.1699094 197.34072993 -115.0669438 191.19421234 -106.87915039 178.71386719 C-105.76114306 176.96562246 -104.6513102 175.21211934 -103.55029297 173.453125 C-101.37522221 170.01137524 -99.05719993 166.68465761 -96.6875 163.375 C-96.29393311 162.8195752 -95.90036621 162.26415039 -95.49487305 161.69189453 C-92.21191079 157.12913343 -88.56563404 152.97828288 -84.71484375 148.890625 C-82.93987267 147.1044581 -82.93987267 147.1044581 -82 145 C-82.928125 145.061875 -83.85625 145.12375 -84.8125 145.1875 C-88 145 -88 145 -89.8125 143.8125 C-91.27538036 141.57968261 -91.64505955 139.62655933 -92 137 C-92.33 137 -92.66 137 -93 137 C-93.33820166 135.4176994 -93.67035939 133.83410625 -94 132.25 C-94.185625 131.36828125 -94.37125 130.4865625 -94.5625 129.578125 C-95 127 -95 127 -95 123 C-96.98 124.65 -98.96 126.3 -101 128 C-101.36351562 126.96101563 -101.72703125 125.92203125 -102.1015625 124.8515625 C-108.34384594 107.38491116 -116.22312841 94.81396649 -132.9375 85.6875 C-141.64723826 81.69480051 -150.78466935 80.6459496 -160.26171875 80.2109375 C-163 80 -163 80 -164 79 C-166.18292774 78.76518307 -168.37203174 78.58636677 -170.5625 78.4375 C-171.76003906 78.35371094 -172.95757812 78.26992187 -174.19140625 78.18359375 C-175.11824219 78.12300781 -176.04507813 78.06242187 -177 78 C-177.33 77.01 -177.66 76.02 -178 75 C-177.32453125 74.49210937 -176.6490625 73.98421875 -175.953125 73.4609375 C-170.97914863 69.62263782 -167.25792582 66.34299835 -164 61 C-162.515 60.505 -162.515 60.505 -161 60 C-160.67 61.65 -160.34 63.3 -160 65 C-143.26575138 66.30679599 -128.5174078 56.20187138 -116.14453125 45.83984375 C-115.43683594 45.23269531 -114.72914063 44.62554687 -114 44 C-113.34386719 43.46503906 -112.68773437 42.93007812 -112.01171875 42.37890625 C-108.18685535 39.22564627 -105.06326915 35.8987062 -102 32 C-100.43410573 35.13178854 -100.69189553 38.43900246 -100.625 41.875 C-100.56892578 42.95587891 -100.56892578 42.95587891 -100.51171875 44.05859375 C-100.4765625 46.1796875 -100.4765625 46.1796875 -101 50 C-103.4296875 52.29296875 -103.4296875 52.29296875 -106 54 C-107.01529541 56.32671865 -108.01488198 58.6603447 -109 61 C-113.40327348 66.11731783 -117.82034436 69.99487449 -124.6875 70.5625 C-125.43386719 70.58441406 -126.18023437 70.60632813 -126.94921875 70.62890625 C-129.53541317 71.09688429 -130.43950738 71.91601944 -132 74 C-131.99843776 76.59117313 -131.99843776 76.59117313 -131 79 C-127.17279985 81.55146677 -125.5688164 81.43512537 -121 81 C-112.24451211 78.31239771 -105.73546042 74.05873685 -99.515625 67.390625 C-98 66 -98 66 -96 66 C-94.62888644 67.97681427 -93.34111462 69.96486475 -92.0625 72 C-87.4334206 79.05168538 -81.74201887 84.28786065 -74.0234375 87.93359375 C-71.2139986 89.41424398 -68.91347112 91.39026682 -66.4375 93.375 C-61.75433877 97.01649423 -57.25795013 99.42649216 -51.5703125 101.1484375 C-49 102 -49 102 -46.45703125 103.58203125 C-41.21634985 105.73159888 -36.16766871 105.39382862 -30.5625 105.3125 C-29.45583984 105.31572266 -28.34917969 105.31894531 -27.20898438 105.32226562 C-21.4048105 105.2841031 -16.46765548 104.96383491 -11 103 C-10.14535156 102.74863281 -9.29070312 102.49726563 -8.41015625 102.23828125 C-0.06600652 98.9478262 2.79311816 92.55213232 6.24707031 84.75634766 C7.77231458 81.1984335 9.05325731 77.75541269 10 74 C10.27585937 73.03707031 10.55171875 72.07414062 10.8359375 71.08203125 C16.40563245 49.28868357 13.58855806 25.70099237 2.70703125 6.08984375 C1 3 1 3 0 0 Z " fill="#B6CCF1" transform="translate(363,154)"/>
<path d="M0 0 C2.10612995 0.21145042 4.212901 0.41819981 6.32226562 0.59448242 C21.88419684 1.92355708 35.42252576 5.62847031 46.4375 17.4375 C54.93828738 27.64541272 56.08319314 38.07732435 55 51 C53.40277059 58.9957689 49.46476141 65.06200152 44 71 C43.42636719 71.62777344 42.85273438 72.25554687 42.26171875 72.90234375 C34.00554957 80.9817213 23.85559916 84.57079408 12.5 84.6875 C-1.22747162 84.42398279 -12.19247033 79.31883926 -23 71 C-23.46019531 70.48695313 -23.92039062 69.97390625 -24.39453125 69.4453125 C-26.41434668 67.62698717 -28.64842328 66.92477266 -31.14111328 65.91943359 C-34.40617642 64.3044838 -36.84639315 61.83208319 -39.4375 59.3125 C-39.97826172 58.80138672 -40.51902344 58.29027344 -41.07617188 57.76367188 C-42.39216133 56.51755796 -43.69725905 55.25995799 -45 54 C-45.46148437 54.51949219 -45.92296875 55.03898437 -46.3984375 55.57421875 C-52.28107967 61.86376305 -57.87089712 66.4282672 -66.64453125 67.40625 C-76.12220135 67.64050755 -76.12220135 67.64050755 -78.921875 65.59765625 C-80 64 -80 64 -79.8125 61.9375 C-79 60 -79 60 -77 58 C-75.26230699 57.64223967 -73.50845001 57.3604209 -71.75 57.125 C-66.03576942 56.167642 -62.19048064 54.51499629 -58.3125 50.0625 C-57.32461252 48.51010539 -56.39678693 46.91924326 -55.5 45.3125 C-54 43 -54 43 -51 42 C-51.33 41.01 -51.66 40.02 -52 39 C-53.1865126 34.91405167 -53.14865179 31.23657606 -53 27 C-53.886875 27.969375 -54.77375 28.93875 -55.6875 29.9375 C-67.53438904 41.68961393 -86.90014873 53.79760749 -104 54.3125 C-107.70736086 54.29263914 -107.70736086 54.29263914 -110 52 C-109.88759628 48.30600502 -109.35345889 46.43937874 -107.0234375 43.54296875 C-99.55939808 36.9045974 -91.74699492 31.77687829 -83 27 C-81.41445312 26.13181641 -81.41445312 26.13181641 -79.796875 25.24609375 C-70.76781994 20.53065793 -61.38202968 16.02056324 -51 17 C-50.67 17.33 -50.34 17.66 -50 18 C-49.69449219 17.50371094 -49.38898438 17.00742188 -49.07421875 16.49609375 C-42.98248272 7.45286871 -34.06002778 2.57053795 -23.6953125 -0.3515625 C-17.03265179 -1.52069747 -6.18481483 -3.09240741 0 0 Z M-23.81640625 22.91796875 C-28.22057005 28.40460173 -30.28349926 33.57733864 -30 40.6875 C-28.72362954 50.23127003 -23.66339334 58.45841336 -16.703125 64.95703125 C-6.52148018 72.6521183 4.25808239 76.09171877 17 75 C26.93614266 72.7860407 34.95314384 67.68645136 40.4375 59.0625 C45.15700381 50.40789745 46.28709605 41.66734377 44.0625 32.0625 C41.58312374 24.56589536 35.85273874 18.17249408 28.875 14.5 C12.04680684 7.02080304 -10.8007208 9.17452454 -23.81640625 22.91796875 Z " fill="#442D62" transform="translate(239,79)"/>
<path d="M0 0 C5.87223213 3.35556121 9.96090728 7.92181456 13 14 C13.66 13.01 14.32 12.02 15 11 C15.44085938 11.80050781 15.44085938 11.80050781 15.890625 12.6171875 C20.31394055 19.96395872 27.31849206 27.74357834 35.46875 30.98046875 C38.90489135 32.36447013 41.55050025 34.60757564 44.4375 36.875 C49.85975443 41.05815888 55.37838465 44.30663762 61.51049805 47.34985352 C72.57006193 52.87640679 78.72785226 57.14610858 83 69 C83.41765625 70.10730469 83.8353125 71.21460938 84.265625 72.35546875 C85.34943445 75.54965366 86.21897241 78.71968411 87 82 C87.22429687 82.90492188 87.44859375 83.80984375 87.6796875 84.7421875 C90.88399568 100.23699279 89.82801445 116.0331552 85 131 C84.53207031 132.50626953 84.53207031 132.50626953 84.0546875 134.04296875 C83.14419615 136.75531482 82.11965152 139.3676278 81 142 C80.61585938 142.94746094 80.23171875 143.89492187 79.8359375 144.87109375 C76.16508612 152.78167114 71.01520659 156.68120352 63 160 C56.78720887 161.25041707 50.6880461 161.18388013 44.375 161.1875 C43.24320312 161.19974609 42.11140625 161.21199219 40.9453125 161.22460938 C39.31335938 161.22750977 39.31335938 161.22750977 37.6484375 161.23046875 C36.16609619 161.23663208 36.16609619 161.23663208 34.65380859 161.24291992 C31.94772606 160.99521503 30.31258111 160.3839149 28 159 C28.96679688 158.96261719 29.93359375 158.92523438 30.9296875 158.88671875 C45.48092937 158.15195307 58.63546011 154.96295443 69 144 C80.25019121 130.06213097 83.70753406 114.66017102 82 97 C80.38872613 88.9344757 76.91273658 82.51442331 72 76 C71.401875 75.113125 70.80375 74.22625 70.1875 73.3125 C62.14427802 64.80966534 50.03012258 59.54943844 38.39990234 58.84179688 C35.74283678 58.80464196 33.09428902 58.82432024 30.4375 58.875 C29.06754883 58.88853516 29.06754883 58.88853516 27.66992188 58.90234375 C25.44632681 58.92562747 23.22331323 58.9583229 21 59 C21.99 58.01 22.98 57.02 24 56 C11.44521084 55.46108218 2.25219104 57.27631694 -8.58984375 63.6953125 C-12.18557021 65.64178355 -15.26787296 66.12665805 -19.328125 66.09765625 C-20.12734375 66.09443359 -20.9265625 66.09121094 -21.75 66.08789062 C-22.575 66.07951172 -23.4 66.07113281 -24.25 66.0625 C-25.09046875 66.05798828 -25.9309375 66.05347656 -26.796875 66.04882812 C-28.86461401 66.03707961 -30.93231624 66.01914522 -33 66 C-32.505 65.01 -32.505 65.01 -32 64 C-30.04165798 63.35017309 -28.05648133 62.78048745 -26.0625 62.25 C-14.39421071 58.76483263 -5.70672057 52.97332515 0.5703125 42.33984375 C5.5597797 32.66027738 7.00162644 21.45150935 4.140625 10.80078125 C3.46871759 9.17213611 2.75271952 7.56016678 1.97265625 5.98046875 C0.99843938 3.99682236 0.46005656 2.15500177 0 0 Z " fill="#DBE5FD" transform="translate(288,99)"/>
<path d="M0 0 C1.56589427 3.13178854 1.30810447 6.43900246 1.375 9.875 C1.43107422 10.95587891 1.43107422 10.95587891 1.48828125 12.05859375 C1.5234375 14.1796875 1.5234375 14.1796875 1 18 C-1.4296875 20.29296875 -1.4296875 20.29296875 -4 22 C-5.01529541 24.32671865 -6.01488198 26.6603447 -7 29 C-11.40327348 34.11731783 -15.82034436 37.99487449 -22.6875 38.5625 C-23.43386719 38.58441406 -24.18023437 38.60632813 -24.94921875 38.62890625 C-27.53541317 39.09688429 -28.43950738 39.91601944 -30 42 C-29.99843776 44.59117313 -29.99843776 44.59117313 -29 47 C-25.17279985 49.55146677 -23.5688164 49.43512537 -19 49 C-10.24451211 46.31239771 -3.73546042 42.05873685 2.484375 35.390625 C4 34 4 34 6 34 C7.37111356 35.97681427 8.65888538 37.96486475 9.9375 40 C14.56622598 47.051147 20.24790033 52.25100457 27.9453125 55.9296875 C30.88915622 57.46317263 33.41521068 59.43973148 36.0625 61.4375 C37.10535156 62.21996094 38.14820313 63.00242188 39.22265625 63.80859375 C41.31497458 65.45949471 43.19240991 67.0548079 45 69 C44.2471875 69.0515625 43.494375 69.103125 42.71875 69.15625 C25.89497791 70.95296352 11.54742552 80.01348233 1 93 C-0.9156801 90.12647985 -2.00749051 87.58067447 -3.25 84.375 C-5.56281199 78.73283035 -8.34583242 73.8691082 -12 69 C-12.91845703 67.7625 -12.91845703 67.7625 -13.85546875 66.5 C-23.15475794 55.65929858 -36.90576236 49.97355591 -50.84765625 48.62890625 C-53.31754071 48.46558734 -55.78904407 48.32443732 -58.26171875 48.2109375 C-61 48 -61 48 -62 47 C-64.18292774 46.76518307 -66.37203174 46.58636677 -68.5625 46.4375 C-70.35880859 46.31181641 -70.35880859 46.31181641 -72.19140625 46.18359375 C-73.58166016 46.09271484 -73.58166016 46.09271484 -75 46 C-75.495 44.515 -75.495 44.515 -76 43 C-75.32453125 42.49210937 -74.6490625 41.98421875 -73.953125 41.4609375 C-68.97914863 37.62263782 -65.25792582 34.34299835 -62 29 C-61.01 28.67 -60.02 28.34 -59 28 C-58.67 29.65 -58.34 31.3 -58 33 C-41.26575138 34.30679599 -26.5174078 24.20187138 -14.14453125 13.83984375 C-13.43683594 13.23269531 -12.72914063 12.62554687 -12 12 C-11.34386719 11.46503906 -10.68773437 10.93007812 -10.01171875 10.37890625 C-6.18685535 7.22564627 -3.06326915 3.8987062 0 0 Z " fill="#DBE5FD" transform="translate(261,186)"/>
<path d="M0 0 C2.19892315 1.42304893 4.23482976 2.93212668 6.2734375 4.57421875 C7.3046875 5.31671875 8.3359375 6.05921875 9.3984375 6.82421875 C17.6864856 14.75191693 23.8254643 25.59684983 24.4765625 37.19140625 C24.81736525 55.34397523 21.17560464 70.00918729 8.44140625 83.60546875 C-1.28196881 92.43534448 -13.11494768 95.99978946 -26.00390625 95.83984375 C-39.37868386 94.88550495 -50.95453462 87.34034337 -59.6015625 77.38671875 C-70.14822039 63.53816061 -73.80364702 49.77282645 -72.7265625 32.57421875 C-71.02712244 21.23431874 -64.04316278 11.86886502 -55.4765625 4.58203125 C-39.29699945 -7.23088837 -17.94816739 -9.38550301 0 0 Z M-55.96484375 20.16796875 C-62.3734841 28.92123361 -63.79282654 39.91333206 -62.2265625 50.51171875 C-59.27678523 62.52571227 -52.30329094 74.90794645 -41.625 81.484375 C-31.86427723 86.50722869 -22.93201509 88.50170393 -12.1640625 85.13671875 C-1.71504339 80.89740242 6.06095416 71.98049063 10.48828125 61.7734375 C15.15519855 49.49994325 15.64380802 38.05863568 11.2734375 25.57421875 C6.82162399 15.85234563 0.28051851 9.43460016 -9.55078125 5.30078125 C-27.50022857 -0.6931096 -44.25198027 6.36105698 -55.96484375 20.16796875 Z " fill="#442E62" transform="translate(346.7265625,162.42578125)"/>
<path d="M0 0 C14.70282532 9.17492999 24.5352835 22.65195261 28.50390625 39.5625 C28.77345093 42.71415296 28.78403955 45.83851455 28.75390625 49 C28.76550781 50.21139648 28.76550781 50.21139648 28.77734375 51.44726562 C28.7378551 63.6986194 24.18961239 75.97258937 15.81640625 85.0625 C6.92071126 92.93960396 -1.85347885 95.68007501 -13.51171875 95.0078125 C-26.54803246 93.79214876 -37.10595395 84.98736342 -45.36328125 75.32421875 C-52.00568139 66.72316216 -56.66157983 58.0502015 -59.49609375 47.5625 C-59.72039062 46.85222656 -59.9446875 46.14195312 -60.17578125 45.41015625 C-62.95958073 35.47618687 -63.18357051 22.94092445 -58.62109375 13.5625 C-58.24984375 12.9025 -57.87859375 12.2425 -57.49609375 11.5625 C-56.91859375 10.510625 -56.34109375 9.45875 -55.74609375 8.375 C-41.52546721 -9.40078318 -19.33265213 -10.4265989 0 0 Z M-46.87109375 13.25 C-53.42751988 26.6150225 -52.08818156 38.84846885 -47.49609375 52.5625 C-42.55345528 65.61198941 -33.98744934 76.86161876 -21.60546875 83.58984375 C-15.28191452 86.37889104 -8.41265376 86.79570257 -1.81640625 84.71875 C8.05269469 80.27915444 12.62846004 73.3045081 16.55859375 63.4921875 C20.57349575 51.04930939 18.69444486 38.19054212 13.37890625 26.4375 C7.86032992 16.19106872 -0.35321509 8.55352945 -11.29296875 4.53515625 C-24.69841726 0.51722486 -37.31823667 2.44018804 -46.87109375 13.25 Z " fill="#442D62" transform="translate(233.49609375,240.4375)"/>
<path d="M0 0 C11.62872085 7.32120282 22.56708402 18.12130543 26.1796875 31.859375 C26.78541557 35.79129405 26.84890415 39.65190684 26.875 43.625 C26.895625 44.40230469 26.91625 45.17960937 26.9375 45.98046875 C26.99767301 54.93120433 23.18460687 61.84451545 17.625 68.75 C11.10267135 75.09344622 3.82925101 77.82306808 -5.1875 78.1875 C-20.67284577 77.75406793 -34.03990198 68.96232244 -44.76171875 58.3984375 C-56.98156808 45.32797047 -63.98769012 31.33626531 -63.84375 13.34375 C-63.08446683 7.52257904 -60.44556685 2.92768703 -56.375 -1.25 C-38.85832693 -13.01848327 -17.65102912 -9.65853507 0 0 Z M-51.375 8.75 C-54.7637645 15.73714329 -54.20983609 23.08673149 -51.75 30.3125 C-45.61446017 45.36274404 -34.72180384 58.75620786 -19.84765625 65.7109375 C-12.38899493 68.84522488 -5.20630172 69.86629096 2.60546875 67.03125 C9.02967246 63.74115009 13.93493495 57.9701415 16.15234375 51.10546875 C18.19932814 40.90438125 16.60159496 31.49449845 11.33984375 22.5703125 C3.45130923 11.27586475 -8.42383666 3.42422082 -22.06640625 0.99609375 C-33.23824139 -0.19481253 -43.21333327 0.38926822 -51.375 8.75 Z " fill="#442D62" transform="translate(166.375,151.25)"/>
<path d="M0 0 C2.50916764 2.50916764 2.77371691 4.39304926 3.6875 7.8125 C8.07275783 22.41927791 16.02832912 34.72021007 29 43 C29.33 42.34 29.66 41.68 30 41 C30.42667969 41.4846875 30.85335937 41.969375 31.29296875 42.46875 C39.599337 51.37454689 50.46029107 59.02589279 62.96337891 59.48217773 C73.58130316 59.56972104 81.4836785 57.14951984 89.75 50.125 C99.2596397 39.70187275 102.16437495 26.80362904 102.34179688 13.18945312 C102.52996855 8.27510923 103.26588047 5.53795566 107 2 C107.66 2 108.32 2 109 2 C109.99 5.63 110.98 9.26 112 13 C112.33 13 112.66 13 113 13 C113.1953125 15.01822917 113.390625 17.03645833 113.5859375 19.0546875 C113.86374749 21.22668245 113.86374749 21.22668245 116 23 C117.98821313 23.39764263 119.98944339 23.73775349 122 24 C120.56827527 27.23493864 118.79504705 29.47258332 116.375 32.0390625 C111.736821 37.1565479 107.87486857 42.66865058 104 48.375 C102.0064717 51.28742025 100.00954906 54.19714558 98.00048828 57.09887695 C96.64840733 59.05967485 95.31381075 61.03262707 93.99560547 63.01635742 C89.99832792 68.85249956 86.66506875 72.76534316 80.125 75.5625 C79.42882568 75.88275146 78.73265137 76.20300293 78.01538086 76.53295898 C72.8063654 78.84841257 67.73351366 80.66512221 62 81 C61.30261719 81.05285156 60.60523438 81.10570312 59.88671875 81.16015625 C47.04947135 80.94894011 33.98089707 68.83634367 25.4140625 60.4765625 C18.86185818 53.60178812 13.92157854 46.06120623 9 38 C8.34 37.01 7.68 36.02 7 35 C6.53150894 33.33528346 6.13288989 31.65028682 5.78125 29.95703125 C5.57113281 28.96509766 5.36101562 27.97316406 5.14453125 26.95117188 C4.93183594 25.91541016 4.71914062 24.87964844 4.5 23.8125 C4.07407625 21.77710075 3.64701345 19.74193949 3.21875 17.70703125 C3.01507813 16.7320166 2.81140625 15.75700195 2.6015625 14.75244141 C2.06999638 12.32026752 1.47746186 9.91881969 0.84375 7.51171875 C0 4 0 4 0 0 Z " fill="#DBE5FE" transform="translate(159,275)"/>
<path d="M0 0 C2.204364 0.22950319 4.41392173 0.41075933 6.625 0.5625 C7.81351562 0.64628906 9.00203125 0.73007813 10.2265625 0.81640625 C11.14179688 0.87699219 12.05703125 0.93757813 13 1 C13 1.33 13 1.66 13 2 C11.87722656 2.04898438 10.75445312 2.09796875 9.59765625 2.1484375 C-4.63494983 2.82602916 -18.44245435 4.14365588 -29 15 C-29.66 15 -30.32 15 -31 15 C-31.41572266 15.86431641 -31.41572266 15.86431641 -31.83984375 16.74609375 C-33.33747789 19.65563886 -35.1030142 22.35213768 -36.87890625 25.09765625 C-40.37604952 31.03183316 -39.72901674 38.54814964 -38.3515625 45.0703125 C-36.07456034 52.5240888 -32.3700298 58.59979888 -28 65 C-27.67 65.66 -27.34 66.32 -27 67 C-34.21645086 65.75634861 -40.14506077 59.16816112 -45 54 C-45.46148437 54.51949219 -45.92296875 55.03898437 -46.3984375 55.57421875 C-52.28107967 61.86376305 -57.87089712 66.4282672 -66.64453125 67.40625 C-76.12220135 67.64050755 -76.12220135 67.64050755 -78.921875 65.59765625 C-80 64 -80 64 -79.8125 61.9375 C-79 60 -79 60 -77 58 C-75.26230699 57.64223967 -73.50845001 57.3604209 -71.75 57.125 C-66.03576942 56.167642 -62.19048064 54.51499629 -58.3125 50.0625 C-57.32461252 48.51010539 -56.39678693 46.91924326 -55.5 45.3125 C-54 43 -54 43 -51 42 C-51.33 41.01 -51.66 40.02 -52 39 C-53.1865126 34.91405167 -53.14865179 31.23657606 -53 27 C-53.886875 27.969375 -54.77375 28.93875 -55.6875 29.9375 C-67.53438904 41.68961393 -86.90014873 53.79760749 -104 54.3125 C-107.70736086 54.29263914 -107.70736086 54.29263914 -110 52 C-109.88759628 48.30600502 -109.35345889 46.43937874 -107.0234375 43.54296875 C-99.55939808 36.9045974 -91.74699492 31.77687829 -83 27 C-81.41445312 26.13181641 -81.41445312 26.13181641 -79.796875 25.24609375 C-70.76781994 20.53065793 -61.38202968 16.02056324 -51 17 C-50.67 17.33 -50.34 17.66 -50 18 C-49.69449219 17.50371094 -49.38898438 17.00742188 -49.07421875 16.49609375 C-42.98248272 7.45286871 -34.06002778 2.57053795 -23.6953125 -0.3515625 C-17.03265179 -1.52069747 -6.18481483 -3.09240741 0 0 Z " fill="#B5CAEF" transform="translate(239,79)"/>
<path d="M0 0 C0.928125 0.99 0.928125 0.99 1.875 2 C7.27082478 7.38040814 12.89291917 12.19784412 20 15 C21.47606291 16.0520592 22.91394849 17.15939812 24.3125 18.3125 C28.36058941 21.55912205 32.53659867 24.36087715 37 27 C34.55194437 29.44805563 33.49949784 29.33919157 30.125 29.75 C20.09617977 31.4477924 11.42448472 36.05595153 5 44 C2.55102153 47.67346771 2.68462284 49.66356399 3 54 C4.95633975 56.41121859 4.95633975 56.41121859 8.625 56.125 C10.295625 56.063125 10.295625 56.063125 12 56 C12.165 55.154375 12.33 54.30875 12.5 53.4375 C14.88855618 47.96372543 19.26094899 44.58576638 24.375 41.625 C28.53282576 40.63504149 32.74390877 40.31404168 37 40 C37 40.99 37 41.98 37 43 C40.3 42.01 43.6 41.02 47 40 C45.59284249 44.2597105 43.54513289 46.91991422 40.5 50.1875 C39.7059375 51.04730469 38.911875 51.90710938 38.09375 52.79296875 C36.7470681 54.21251217 35.38359237 55.61640763 34 57 C33.3915625 57.62519531 32.783125 58.25039062 32.15625 58.89453125 C30.02577617 60.97483088 27.83653679 62.84307626 25.5 64.6875 C24.7471875 65.28949219 23.994375 65.89148438 23.21875 66.51171875 C20.99059031 68.00631178 19.57478793 68.41676075 17 69 C13.7006635 70.48322663 10.44988728 72.05428377 7.19140625 73.625 C4.39804164 74.82850593 1.9921529 75.55257527 -1 76 C-1.7928352 73.22894429 -2.09572519 70.86436635 -1.9921875 67.98828125 C-1.58751728 52.08712202 -4.99960501 41.05618093 -15.921875 28.953125 C-19.27904692 25.79788824 -23.02838715 23.23923237 -26.83984375 20.6640625 C-27.55269531 20.11492187 -28.26554688 19.56578125 -29 19 C-29 18.34 -29 17.68 -29 17 C-29.66 16.67 -30.32 16.34 -31 16 C-30.67 15.34 -30.34 14.68 -30 14 C-28.21313929 13.84462081 -26.41839029 13.77766155 -24.625 13.75 C-14.8432236 13.07539473 -7.69580583 8.4085768 -1.14453125 1.3203125 C-0.76683594 0.88460937 -0.38914063 0.44890625 0 0 Z " fill="#DBE5FD" transform="translate(194,132)"/>
<path d="M0 0 C0.7324292 0.00563965 1.4648584 0.0112793 2.21948242 0.01708984 C15.71000702 0.31083631 28.26392692 3.51160179 39.3125 11.5625 C45.33207155 17.86871782 48.31459546 23.04835165 48.5625 31.9375 C48.29467688 37.98786768 47.54109749 42.4251209 43.9375 47.3125 C43.525 47.91320312 43.1125 48.51390625 42.6875 49.1328125 C35.92134595 58.01338969 24.75719049 62.80865618 13.9375 64.3125 C-3.80999242 65.44208336 -20.58656348 60.84053435 -34.25048828 49.22680664 C-41.42278133 42.73273136 -45.34905287 36.32584012 -46.5 26.625 C-46.37619736 21.07451504 -43.75844629 17.29495375 -40.0625 13.3125 C-32.90045377 7.36753352 -24.97741883 4.58155654 -16.0625 2.3125 C-15.12651978 2.04651001 -15.12651978 2.04651001 -14.17163086 1.77514648 C-9.43555774 0.47592096 -4.9188102 -0.04047452 0 0 Z M-34.0625 22.3125 C-36.0351309 25.6024027 -36.53450046 28.16433435 -35.9140625 32.03125 C-32.70628198 40.62457029 -24.02313252 46.51662291 -16.0625 50.3125 C-3.13940011 55.85606423 8.56212266 56.80100264 21.9375 52.3125 C28.72451542 49.21407992 33.59243964 44.3630588 37.3125 37.9375 C38.63045107 32.40210551 38.59445136 27.92750543 36.4375 22.625 C31.54672892 15.25464218 24.30501068 12.15969346 15.9375 10.3125 C0.07922036 7.19748079 -22.76899507 9.47897167 -34.0625 22.3125 Z " fill="#442E62" transform="translate(165.0625,21.6875)"/>
<path d="M0 0 C0.99 0.495 0.99 0.495 2 1 C0.09296099 3.74464046 -1.93168845 6.37507861 -4 9 C-4.83349976 10.09066772 -4.83349976 10.09066772 -5.68383789 11.20336914 C-12.65069209 19.2367146 -21.1268816 21.22189245 -31 24 C-46.00614715 28.29792149 -60.66368835 33.19643405 -72.625 43.625 C-76.53794106 46.97799719 -76.53794106 46.97799719 -80.9375 47.1875 C-85.42718447 45.44660194 -85.42718447 45.44660194 -87 43 C-87.6875 40.3125 -87.6875 40.3125 -88 38 C-88.33 38 -88.66 38 -89 38 C-89.33820166 36.4176994 -89.67035939 34.83410625 -90 33.25 C-90.185625 32.36828125 -90.37125 31.4865625 -90.5625 30.578125 C-91 28 -91 28 -91 24 C-92.98 25.65 -94.96 27.3 -97 29 C-97.33 28.01 -97.66 27.02 -98 26 C-96.05986492 23.00683108 -93.48736321 20.54577487 -91 18 C-90.27490234 17.22076172 -90.27490234 17.22076172 -89.53515625 16.42578125 C-80.41002776 7.59110777 -64.65289925 0.81474525 -52 1 C-47.17080965 1.94261424 -43.10099948 3.26600035 -39 6 C-36.40258822 6.30866327 -36.40258822 6.30866327 -33.484375 6.265625 C-31.85435547 6.26949219 -31.85435547 6.26949219 -30.19140625 6.2734375 C-29.05574219 6.26570313 -27.92007813 6.25796875 -26.75 6.25 C-25.06970703 6.26160156 -25.06970703 6.26160156 -23.35546875 6.2734375 C-15.90947725 6.25585547 -9.59499682 5.96911972 -3.1875 1.8125 C-2.135625 1.214375 -1.08375 0.61625 0 0 Z " fill="#DBE5FC" transform="translate(359,253)"/>
<path d="M0 0 C7.24410028 6.08675881 13.43660937 13.51754192 14.44140625 23.203125 C14.66198719 30.49390554 13.38379066 35.47519152 8.3671875 40.88671875 C0.5376452 48.16129349 -7.0360335 48.44387321 -17.24609375 48.21875 C-31.22764583 47.52473294 -43.29393635 39.56547752 -53.796875 30.90625 C-54.786875 30.184375 -55.776875 29.4625 -56.796875 28.71875 C-63.76754447 22.83846458 -71.66153819 12.87363274 -73.16796875 3.62890625 C-73.46280278 -1.74064676 -72.44388595 -4.96686919 -68.796875 -9.09375 C-50.72607068 -24.58301084 -16.47592606 -12.33393347 0 0 Z M-61.421875 -2.40625 C-62.96816947 0.19433615 -63.22930191 1.81833573 -62.59765625 4.78515625 C-57.2649052 18.91044319 -44.63704623 29.10561155 -31.41796875 35.5546875 C-22.39978315 39.23862164 -14.14140636 41.53005674 -4.77734375 37.93359375 C-1.17900859 36.06700174 1.39648817 33.51952366 3.203125 29.90625 C3.96598025 23.43287831 3.78838008 18.16722193 -0.12890625 12.8125 C-10.42801723 1.04208745 -24.31363718 -4.68618293 -39.796875 -6.09375 C-47.2564881 -6.49359526 -54.96018151 -6.56019581 -61.421875 -2.40625 Z " fill="#442D62" transform="translate(103.796875,86.09375)"/>
<path d="M0 0 C1 1 1 1 1.2734375 3.73046875 C0.56397113 12.2136595 -7.94831091 19.46857702 -14.11328125 24.74609375 C-25.44142523 33.59093689 -40.3015761 45.16897614 -55.1875 45.125 C-56.06792969 45.12757813 -56.94835937 45.13015625 -57.85546875 45.1328125 C-60 45 -60 45 -61 44 C-61.64174871 40.79125645 -61.42166248 38.71642966 -59.75390625 35.8828125 C-47.63647475 19.70758062 -21.16756935 -0.7987762 0 0 Z " fill="#422C60" transform="translate(263,175)"/>
<path d="M0 0 C0.495 1.485 0.495 1.485 1 3 C0.2265625 3.27972656 -0.546875 3.55945313 -1.34375 3.84765625 C-11.37730456 7.70958133 -17.94136494 12.06658704 -22.9921875 21.69140625 C-28.78925893 34.9707443 -26.5358351 49.64448553 -22 63 C-18.86927864 70.54539025 -14.73014684 77.35766614 -10 84 C-10.33 84.66 -10.66 85.32 -11 86 C-24.44960055 79.82690174 -31.85977498 66.1718266 -37 53 C-37.71128287 50.24035925 -38.25444471 47.58190268 -38.61328125 44.7578125 C-38.80470703 43.88769531 -38.80470703 43.88769531 -39 43 C-39.66 42.67 -40.32 42.34 -41 42 C-40.91217358 39.16532658 -40.80519098 36.33346584 -40.6875 33.5 C-40.66494141 32.70851563 -40.64238281 31.91703125 -40.61914062 31.1015625 C-40.1702491 21.14433222 -36.61096922 13.23446089 -29.3125 6.3125 C-20.42042114 -1.03525072 -10.96575647 -0.36328273 0 0 Z " fill="#B6CCF1" transform="translate(199,232)"/>
<path d="M0 0 C5.56087422 1.47811624 11.29970933 1.56220371 17.02734375 1.8046875 C17.02734375 2.1346875 17.02734375 2.4646875 17.02734375 2.8046875 C23.62734375 2.8046875 30.22734375 2.8046875 37.02734375 2.8046875 C35.04734375 5.1146875 33.06734375 7.4246875 31.02734375 9.8046875 C28.7255272 13.13835284 27.60066907 15.79141024 27.02734375 19.8046875 C26.69734375 19.8046875 26.36734375 19.8046875 26.02734375 19.8046875 C26.02734375 18.1546875 26.02734375 16.5046875 26.02734375 14.8046875 C13.62031785 13.75324463 3.67475265 19.62611183 -6.29296875 26.328125 C-7.17726562 26.81539062 -8.0615625 27.30265625 -8.97265625 27.8046875 C-9.96265625 27.4746875 -10.95265625 27.1446875 -11.97265625 26.8046875 C-11.14765625 26.2065625 -10.32265625 25.6084375 -9.47265625 24.9921875 C-4.71227306 21.07455157 -1.44668647 15.83938611 2.02734375 10.8046875 C0.93421875 11.2996875 -0.15890625 11.7946875 -1.28515625 12.3046875 C-4.97265625 13.8046875 -4.97265625 13.8046875 -7.97265625 13.8046875 C-8.46765625 12.8146875 -8.46765625 12.8146875 -8.97265625 11.8046875 C-18.13041444 12.9308843 -24.77594387 14.50141933 -30.97265625 21.8046875 C-32.22701812 24.43691712 -32.22701812 24.43691712 -32.97265625 26.8046875 C-39.34692034 28.12764797 -39.34692034 28.12764797 -41.91015625 26.8046875 C-43.13787334 24.49369063 -43.75953872 22.53348413 -43.63671875 19.8984375 C-41.18061375 12.1544829 -33.04281605 6.63299301 -26.2421875 2.9140625 C-23.49899237 1.57315473 -20.94040784 0.5466254 -17.97265625 -0.1953125 C-17.24691406 -0.41316406 -16.52117187 -0.63101563 -15.7734375 -0.85546875 C-9.77118659 -2.42905729 -5.84606475 -1.89556762 0 0 Z " fill="#DBE5FC" transform="translate(238.97265625,161.1953125)"/>
<path d="M0 0 C1.1452152 3.2447764 1.18847806 4.60509359 -0.3125 7.75 C-10.73093855 21.62935821 -30.91932407 33.84222798 -48 37 C-51.03126613 37.28869201 -53.98669054 37.50005351 -57 37 C-57.66 36.34 -58.32 35.68 -59 35 C-58.88759628 31.30600502 -58.35345889 29.43937874 -56.0234375 26.54296875 C-48.55939808 19.9045974 -40.74699492 14.77687829 -32 10 C-30.41445312 9.13181641 -30.41445312 9.13181641 -28.796875 8.24609375 C-19.67374557 3.48152746 -10.46416669 -0.8049359 0 0 Z " fill="#432D62" transform="translate(188,96)"/>
<path d="M0 0 C0 0.33 0 0.66 0 1 C-1.7015625 1.14695313 -1.7015625 1.14695313 -3.4375 1.296875 C-14.28922699 2.33272167 -22.38359242 3.29553419 -30 12 C-35.05261423 18.13531728 -34.72546681 25.15482228 -34.25634766 32.78173828 C-32.56291152 47.43560562 -22.90961961 58.93482725 -14 70 C-18.19592787 70 -20.1655998 67.6894314 -23.1875 65.0625 C-24.05870483 64.31141968 -24.05870483 64.31141968 -24.94750977 63.54516602 C-34.69067532 55.01329096 -42.77186329 45.58143157 -46.359375 32.91015625 C-47.00481657 30.7096542 -47.00481657 30.7096542 -49 28 C-49.37375765 20.99983074 -49.57082277 13.16229572 -45.375 7.25 C-33.57002828 -5.48030204 -15.46744474 -2.56265357 0 0 Z " fill="#B5CBF1" transform="translate(138,142)"/>
<path d="M0 0 C1.81177734 -0.00773437 1.81177734 -0.00773437 3.66015625 -0.015625 C6.71835328 0.23223841 8.43979228 0.52035252 10.9375 2.25 C11.6875 4.375 11.6875 4.375 11.9375 6.25 C13.5875 6.25 15.2375 6.25 16.9375 6.25 C10.65290835 19.91602242 -7.70747041 28.02088942 -21.0625 33.25 C-24.38341538 34.1672442 -27.64072272 34.85548921 -31.0625 35.25 C-31.0625 34.26 -31.0625 33.27 -31.0625 32.25 C-29.5234375 30.78515625 -29.5234375 30.78515625 -27.4375 29.3125 C-26.71304688 28.79558594 -25.98859375 28.27867188 -25.2421875 27.74609375 C-22.53209591 25.88594128 -19.81861898 24.04147734 -17.0625 22.25 C-18.17625 22.12625 -19.29 22.0025 -20.4375 21.875 C-24.0625 21.25 -24.0625 21.25 -26.0625 19.25 C-26.52510359 15.78047309 -26.38384476 13.8342632 -24.6875 10.75 C-17.75502371 4.14764163 -9.59500712 -0.04104816 0 0 Z " fill="#B5CBF1" transform="translate(148.0625,86.75)"/>
<path d="M0 0 C1.89492187 0.01353516 1.89492187 0.01353516 3.828125 0.02734375 C4.79234375 0.03894531 5.7565625 0.05054688 6.75 0.0625 C4.39455924 2.85863613 2.70542877 3.51691085 -0.875 4.0625 C-5.18739385 4.81166039 -9.14202327 5.95079008 -13.265625 7.3984375 C-15.56441 8.16771594 -17.85786734 8.67667215 -20.25 9.0625 C-20.25 9.7225 -20.25 10.3825 -20.25 11.0625 C-21.46623047 11.4646875 -21.46623047 11.4646875 -22.70703125 11.875 C-31.0857733 14.84023584 -41.04080088 18.59773974 -45.76171875 26.63671875 C-47.5049834 29.47810286 -48.99290909 30.38136693 -51.9375 31.875 C-52.74574219 32.29394531 -53.55398437 32.71289062 -54.38671875 33.14453125 C-55.00160156 33.44746094 -55.61648437 33.75039063 -56.25 34.0625 C-54.93 34.7225 -53.61 35.3825 -52.25 36.0625 C-52.91386719 36.09988281 -53.57773438 36.13726562 -54.26171875 36.17578125 C-55.14472656 36.24152344 -56.02773437 36.30726562 -56.9375 36.375 C-57.80761719 36.43300781 -58.67773438 36.49101563 -59.57421875 36.55078125 C-62.68828501 37.14631801 -64.55180198 38.4140447 -67.25 40.0625 C-69.77005889 40.96784427 -72.25183446 41.79739138 -74.8125 42.5625 C-75.51560303 42.77680664 -76.21870605 42.99111328 -76.94311523 43.21191406 C-88.76672102 46.77147843 -99.85308377 49.28699144 -112.25 49.0625 C-112.25 48.4025 -112.25 47.7425 -112.25 47.0625 C-110.75726563 46.76859375 -110.75726563 46.76859375 -109.234375 46.46875 C-87.30988724 41.87965639 -63.64592168 32.90419411 -48.375 15.875 C-39.13073387 6.34716742 -23.70497786 4.07083725 -11.25 1.0625 C-10.57759277 0.87929199 -9.90518555 0.69608398 -9.21240234 0.50732422 C-6.14689055 -0.18754546 -3.13430945 -0.02902138 0 0 Z " fill="#E9EFFB" transform="translate(153.25,9.9375)"/>
<path d="M0 0 C0.99 3.63 1.98 7.26 3 11 C3.33 11 3.66 11 4 11 C4.1953125 13.01822917 4.390625 15.03645833 4.5859375 17.0546875 C4.86374749 19.22668245 4.86374749 19.22668245 7 21 C8.98821313 21.39764263 10.98944339 21.73775349 13 22 C11.61133824 25.11417711 9.98066491 27.2374097 7.625 29.6875 C4.87344732 32.66669912 2.49247906 35.68694365 0.296875 39.0859375 C-10.79926812 56.25498254 -10.79926812 56.25498254 -20.54931641 59.47998047 C-29.80194555 61.44332975 -40.650009 61.33282412 -50 60 C-50.66 59.34 -51.32 58.68 -52 58 C-50.91203125 57.99742187 -49.8240625 57.99484375 -48.703125 57.9921875 C-37.25075044 57.76998895 -28.24241951 55.78670272 -19.25 48.125 C-9.7403603 37.70187275 -6.83562505 24.80362904 -6.65820312 11.18945312 C-6.48659752 6.70775321 -5.761574 0 0 0 Z " fill="#EAF0FC" transform="translate(268,277)"/>
<path d="M0 0 C8.09361658 4.62492376 12.42005322 11.35730498 15.3046875 20.14453125 C17.72808309 30.09679068 15.48883841 38.68873051 10.609375 47.515625 C5.20727431 56.10212189 -3.05760363 62.6016957 -12.89111328 65.57104492 C-15.09874725 66.02008554 -17.07714196 66.1137347 -19.328125 66.09765625 C-20.12734375 66.09443359 -20.9265625 66.09121094 -21.75 66.08789062 C-22.575 66.07951172 -23.4 66.07113281 -24.25 66.0625 C-25.09046875 66.05798828 -25.9309375 66.05347656 -26.796875 66.04882812 C-28.86461401 66.03707961 -30.93231624 66.01914522 -33 66 C-32.505 65.01 -32.505 65.01 -32 64 C-30.04165798 63.35017309 -28.05648133 62.78048745 -26.0625 62.25 C-14.39421071 58.76483263 -5.70672057 52.97332515 0.5703125 42.33984375 C5.5597797 32.66027738 7.00162644 21.45150935 4.140625 10.80078125 C3.46871759 9.17213611 2.75271952 7.56016678 1.97265625 5.98046875 C0.99843938 3.99682236 0.46005656 2.15500177 0 0 Z " fill="#EBF1FD" transform="translate(288,99)"/>
<path d="M0 0 C1.76746415 1.61151143 3.37557337 3.24964882 5 5 C5.82564453 5.79083984 5.82564453 5.79083984 6.66796875 6.59765625 C12.94978534 13.86427069 11.90003318 23.33667613 11.26855469 32.37451172 C10.60983368 38.81440778 8.98212969 44.85539797 7 51 C6.68804687 52.00417969 6.37609375 53.00835937 6.0546875 54.04296875 C5.14419615 56.75531482 4.11965152 59.3676278 3 62 C2.61585938 62.94746094 2.23171875 63.89492187 1.8359375 64.87109375 C-1.83491388 72.78167114 -6.98479341 76.68120352 -15 80 C-21.21279113 81.25041707 -27.3119539 81.18388013 -33.625 81.1875 C-34.75679688 81.19974609 -35.88859375 81.21199219 -37.0546875 81.22460938 C-38.68664062 81.22750977 -38.68664062 81.22750977 -40.3515625 81.23046875 C-41.33979004 81.23457764 -42.32801758 81.23868652 -43.34619141 81.24291992 C-46.05227394 80.99521503 -47.68741889 80.3839149 -50 79 C-49.03320312 78.96261719 -48.06640625 78.92523438 -47.0703125 78.88671875 C-32.51907063 78.15195307 -19.36453989 74.96295443 -9 64 C2.17167359 50.15940651 5.8708082 34.58139304 4 17 C3.00390431 12.82631398 1.59799075 8.97251515 0 5 C-0.69140625 2.73828125 -0.69140625 2.73828125 -1 1 C-0.67 0.67 -0.34 0.34 0 0 Z " fill="#EBF0FC" transform="translate(366,179)"/>
<path d="M0 0 C0 0.33 0 0.66 0 1 C-0.9075 1.28875 -1.815 1.5775 -2.75 1.875 C-5.81832848 2.84451343 -5.81832848 2.84451343 -7.82421875 3.96484375 C-10.50407589 5.23982067 -13.19684855 5.91798728 -16.0625 6.6875 C-24.26437531 9.18773421 -32.12828459 12.72422088 -37.1875 19.9375 C-39.28078012 23.92542783 -39.8861344 27.57710112 -39 32 C-38.03203379 34.9478971 -36.96330807 37.81260878 -35.77734375 40.6796875 C-35.39255859 41.82824219 -35.39255859 41.82824219 -35 43 C-35.33 43.66 -35.66 44.32 -36 45 C-43.30070425 41.67557217 -49.74519597 35.63701008 -52.75 28.125 C-53.33592818 23.14461046 -53.68393441 19.52330845 -51.625 14.9375 C-45.72454754 8.33461272 -38.60489392 4.00639563 -30 2 C-29.14277344 1.79632812 -28.28554687 1.59265625 -27.40234375 1.3828125 C-18.31260021 -0.44263806 -9.22289545 -0.18445791 0 0 Z " fill="#B5CBF0" transform="translate(159,20)"/>
<path d="M0 0 C0.99 0.66 1.98 1.32 3 2 C3.67418644 9.0789576 3.67418644 9.0789576 1.73046875 11.734375 C-0.37856484 13.27687361 -1.47563709 13.29841545 -4.0625 13.3125 C-9.99569876 13.82464908 -14.42949486 16.24704689 -19 20 C-21.29689668 22.84284 -23.13074986 25.86678072 -25 29 C-27.0625 31.625 -27.0625 31.625 -29 33 C-32.39154295 32.83849795 -33.58296757 32.41703243 -36 30 C-36.80497161 25.57265612 -36.68015199 23.25927345 -34.52734375 19.2734375 C-30.17847997 12.99654863 -25.3945645 8.15759671 -19 4 C-18.35289062 3.566875 -17.70578125 3.13375 -17.0390625 2.6875 C-11.65665489 -0.47603754 -6.14081027 -0.85316589 0 0 Z " fill="#432C61" transform="translate(308,266)"/>
<path d="M0 0 C5.75716132 3.42688174 9.99993758 7.54534672 13.375 13.375 C15.01587181 20.26666161 14.52704973 27.63761123 10.9296875 33.84765625 C5.92161087 41.26527918 -1.8447616 46.71875339 -10.68823242 48.55957031 C-14.36012221 49.0478924 -17.88170081 49.1124732 -21.5859375 49.09765625 C-22.28772125 49.0962413 -22.989505 49.09482635 -23.71255493 49.09336853 C-25.93341504 49.0878129 -28.15417084 49.07526892 -30.375 49.0625 C-31.88932145 49.05747926 -33.4036445 49.05291736 -34.91796875 49.04882812 C-38.61201252 49.03785807 -42.30599606 49.02062449 -46 49 C-46 48.67 -46 48.34 -46 48 C-44.98421875 47.96261719 -43.9684375 47.92523438 -42.921875 47.88671875 C-27.99103136 47.22385412 -14.03269798 45.03269798 -3 34 C-1.13376487 31.09191002 0.47257483 28.09744786 2 25 C2.33 24.34 2.66 23.68 3 23 C3.1501182 20.58656122 3.2215537 18.1679357 3.25 15.75 C3.28867188 13.79320312 3.28867188 13.79320312 3.328125 11.796875 C2.98278907 7.80084501 1.94469967 5.45951836 0 2 C0 1.34 0 0.68 0 0 Z " fill="#EBF1FD" transform="translate(209,38)"/>
<path d="M0 0 C1.28132813 0.00902344 2.56265625 0.01804688 3.8828125 0.02734375 C4.87023437 0.03894531 5.85765625 0.05054688 6.875 0.0625 C5.03427809 3.74394382 0.36117485 4.82985619 -3.2421875 6.52734375 C-7.79805986 8.95343838 -9.53944878 11.67830446 -12.125 16.0625 C-12.785 16.7225 -13.445 17.3825 -14.125 18.0625 C-15.04265037 25.28899669 -13.36745462 29.271349 -9.53515625 35.38671875 C-8.125 38.0625 -8.125 38.0625 -7.671875 41.01953125 C-6.99617661 44.77931015 -5.49903636 46.94698994 -3.3125 50.0625 C-2.28189453 51.5475 -2.28189453 51.5475 -1.23046875 53.0625 C-0.53566406 54.0525 0.15914062 55.0425 0.875 56.0625 C1.87853516 57.64417969 1.87853516 57.64417969 2.90234375 59.2578125 C4.69783493 61.81060987 6.05107929 63.25455184 8.625 64.9375 C9.6975 65.63875 10.77 66.34 11.875 67.0625 C11.545 67.7225 11.215 68.3825 10.875 69.0625 C-4.73253119 58.12930556 -19.05347107 43.35444245 -23.125 24.0625 C-23.70823155 19.07852126 -23.71034617 14.49452201 -21.125 10.0625 C-15.30955855 3.25012574 -8.87238542 -0.08065805 0 0 Z " fill="#EBF1FC" transform="translate(33.125,57.9375)"/>
<path d="M0 0 C3.125 0.25 3.125 0.25 5 1.25 C6.86212509 4.56044461 6.90887261 7.63511639 6.125 11.25 C0.70934648 21.68455586 -9.09601673 27.65700558 -19.875 31.25 C-24.37178691 31.74964299 -26.1984935 31.75737987 -29.875 29 C-31.875 26.25 -31.875 26.25 -31.875 24.125 C-30.74997977 22.01558706 -29.71815422 20.77536901 -27.875 19.25 C-25.89453125 18.9140625 -25.89453125 18.9140625 -23.6875 18.875 C-18.47429929 18.43349114 -14.79180234 16.72171117 -10.875 13.25 C-9.17842375 10.98445001 -8.12045578 8.83316754 -6.875 6.25 C-3.37898406 0.2938247 -3.37898406 0.2938247 0 0 Z " fill="#432C61" transform="translate(261.875,204.75)"/>
<path d="M0 0 C-1.40715751 4.2597105 -3.45486711 6.91991422 -6.5 10.1875 C-7.2940625 11.04730469 -8.088125 11.90710938 -8.90625 12.79296875 C-10.2529319 14.21251217 -11.61640763 15.61640763 -13 17 C-13.91265625 17.93779297 -13.91265625 17.93779297 -14.84375 18.89453125 C-16.97422383 20.97483088 -19.16346321 22.84307626 -21.5 24.6875 C-22.2528125 25.28949219 -23.005625 25.89148438 -23.78125 26.51171875 C-26.00940969 28.00631178 -27.42521207 28.41676075 -30 29 C-33.2993365 30.48322663 -36.55011272 32.05428377 -39.80859375 33.625 C-42.60195836 34.82850593 -45.0078471 35.55257527 -48 36 C-48.75 34.3125 -48.75 34.3125 -49 32 C-41.61954672 19.92289463 -14.81232794 0 0 0 Z " fill="#B6CCF1" transform="translate(241,172)"/>
<path d="M0 0 C0.97453125 0.00902344 1.9490625 0.01804687 2.953125 0.02734375 C5.34400728 0.05078377 7.73437261 0.08359558 10.125 0.125 C10.62 1.61 10.62 1.61 11.125 3.125 C10.48433594 3.21136719 9.84367187 3.29773438 9.18359375 3.38671875 C2.86689076 4.41282997 -1.03839414 5.89296987 -5.875 10.125 C-8.45915892 14.39410037 -8.72080248 18.25792609 -7.875 23.125 C-4.99196754 30.12380983 -0.61128623 36.26342591 4.125 42.125 C-2.12096351 42.125 -5.43114343 38.24857862 -9.875 34.125 C-15.88690904 27.62064789 -21.84925485 20.57792465 -22.4375 11.4375 C-22.26446438 7.97678757 -21.88566145 7.13973788 -19.75 4.1875 C-13.47114214 -0.31689803 -7.435212 -0.13097257 0 0 Z " fill="#B5CBF1" transform="translate(39.875,68.875)"/>
<path d="M0 0 C1.051875 -0.02578125 2.10375 -0.0515625 3.1875 -0.078125 C6 0.25 6 0.25 7.8515625 1.609375 C9.49357998 3.95511426 9.41961409 5.45257274 9 8.25 C7.25596913 10.65171255 6.22573883 11.20081304 3.29296875 11.83984375 C1.75576172 12.01193359 1.75576172 12.01193359 0.1875 12.1875 C-6.80644552 13.2083292 -11.4031274 15.83225729 -16 21.25 C-17.25436187 23.88222962 -17.25436187 23.88222962 -18 26.25 C-24.37426409 27.57296047 -24.37426409 27.57296047 -26.9375 26.25 C-28.16521709 23.93900313 -28.78688247 21.97879663 -28.6640625 19.34375 C-26.17702445 11.50226532 -17.98652371 6.13133789 -11.1640625 2.30859375 C-7.32621548 0.43123537 -4.23188517 0.06223361 0 0 Z " fill="#422C60" transform="translate(224,161.75)"/>
<path d="M0 0 C5.90237919 3.03991817 10.39736036 6.80525176 15.1875 11.375 C15.88552734 12.02210937 16.58355469 12.66921875 17.30273438 13.3359375 C27.03419959 22.52110734 27.03419959 22.52110734 27.46875 29.0234375 C27.49188196 30.47381128 27.50192424 31.92444304 27.5 33.375 C27.68877744 39.79206492 28.15104833 44.65704735 32 50 C32.45375 50.66773438 32.9075 51.33546875 33.375 52.0234375 C34.54698609 53.70816751 35.76863004 55.35817339 37 57 C29.5385045 55.8965394 22.77750982 48.40096368 18.4375 42.625 C17.60777768 41.42842716 16.79297446 40.22123593 16 39 C15.34 38.01 14.68 37.02 14 36 C13.82436642 33.27623983 13.73169435 30.60012291 13.6875 27.875 C13.29031293 17.99510126 10.7278139 12.57784825 3.6875 5.5625 C2.99011719 4.92441406 2.29273438 4.28632812 1.57421875 3.62890625 C0 2 0 2 0 0 Z " fill="#B7CDF2" transform="translate(287,73)"/>
<path d="M0 0 C3.125 0.25 3.125 0.25 5 1.3125 C6.89256573 4.57191875 6.73365308 6.53721622 6.125 10.25 C2.42242704 16.16289682 -2.79864111 20.01762764 -8.875 23.25 C-9.46796875 23.61738281 -10.0609375 23.98476562 -10.671875 24.36328125 C-13.79714149 25.6211456 -16.58111456 25.55191203 -19.9375 25.5625 C-21.16597656 25.57925781 -22.39445313 25.59601563 -23.66015625 25.61328125 C-26.875 25.25 -26.875 25.25 -28.8203125 23.859375 C-29.875 22.25 -29.875 22.25 -29.6875 20.1875 C-28.875 18.25 -28.875 18.25 -26.875 16.25 C-25.13730699 15.89223967 -23.38345001 15.6104209 -21.625 15.375 C-15.91076942 14.417642 -12.06548064 12.76499629 -8.1875 8.3125 C-6.70559909 5.98379856 -5.28563836 3.62243725 -3.875 1.25 C-2.875 0.25 -2.875 0.25 0 0 Z " fill="#432C61" transform="translate(188.875,120.75)"/>
<path d="M0 0 C2.29060873 4.58121747 1.24407406 10.21509979 0 15 C-2.74705867 18.60210342 -6.15366868 20.67120387 -10 23 C-11.2170837 23.77978813 -12.43318569 24.56111005 -13.6484375 25.34375 C-31.08188367 36.35985382 -31.08188367 36.35985382 -40 36 C-39.44938105 33.04042316 -38.90022651 30.74233338 -36.5078125 28.76953125 C-34.36363249 27.46611892 -32.18376279 26.23596114 -30 25 C-23.34573953 20.86125882 -17.06034902 16.41054921 -11.0625 11.375 C-10.53116455 10.9320459 -9.9998291 10.4890918 -9.45239258 10.03271484 C-5.86381364 6.95711466 -2.93102675 3.68132641 0 0 Z " fill="#EAF0FC" transform="translate(261,186)"/>
<path d="M0 0 C0.66 0.33 1.32 0.66 2 1 C1.32904297 1.63615234 1.32904297 1.63615234 0.64453125 2.28515625 C-7.40936331 9.87527451 -7.40936331 9.87527451 -11 20 C-11.66 19.01 -12.32 18.02 -13 17 C-13.3403125 17.51949219 -13.680625 18.03898437 -14.03125 18.57421875 C-17.96820048 24.23882037 -22.33494937 28.85330636 -29.24072266 30.55078125 C-32.26841327 31.0436985 -35.10854034 31.11276581 -38.17578125 31.09765625 C-39.33271484 31.09443359 -40.48964844 31.09121094 -41.68164062 31.08789062 C-42.87982422 31.07951172 -44.07800781 31.07113281 -45.3125 31.0625 C-46.53001953 31.05798828 -47.74753906 31.05347656 -49.00195312 31.04882812 C-52.00135226 31.03706578 -55.00065089 31.02062826 -58 31 C-58 30.67 -58 30.34 -58 30 C-57.17757812 29.97421875 -56.35515625 29.9484375 -55.5078125 29.921875 C-44.78057886 29.37684234 -34.66231686 27.05728165 -27 19 C-24.40173186 15.12981774 -22.14249014 11.13768408 -20 7 C-19.505 7.99 -19.505 7.99 -19 9 C-16.20574491 7.88110128 -13.41467176 6.75522071 -10.625 5.625 C-9.43390625 5.14933594 -9.43390625 5.14933594 -8.21875 4.6640625 C-7.45820313 4.3546875 -6.69765625 4.0453125 -5.9140625 3.7265625 C-5.2123291 3.44377441 -4.5105957 3.16098633 -3.78759766 2.86962891 C-1.81037194 2.02805587 -1.81037194 2.02805587 0 0 Z " fill="#EAF0FC" transform="translate(212,199)"/>
<path d="M0 0 C1.82917969 -0.02513672 1.82917969 -0.02513672 3.6953125 -0.05078125 C6.875 0.3125 6.875 0.3125 8.8203125 1.69921875 C9.875 3.3125 9.875 3.3125 9.625 5.4375 C8.875 7.3125 8.875 7.3125 7.875 8.3125 C6.02515603 8.61143479 4.16976229 8.87628027 2.3125 9.125 C-6.65122307 10.57483205 -6.65122307 10.57483205 -13.4765625 16.12890625 C-13.87617188 16.76699219 -14.27578125 17.40507813 -14.6875 18.0625 C-15.8359375 19.88671875 -15.8359375 19.88671875 -17.125 21.3125 C-20.8125 21.875 -20.8125 21.875 -24.125 21.3125 C-26.125 19.3125 -26.125 19.3125 -26.5 16.5 C-26.01360686 12.3656583 -25.14946828 11.19294599 -22.125 8.3125 C-14.91482722 3.41250062 -8.85772122 0.0282093 0 0 Z " fill="#422B60" transform="translate(148.125,86.6875)"/>
<path d="M0 0 C4.00099318 -0.10147446 5.72057267 0.09236095 9.15625 2.3828125 C8.9668082 6.4558112 8.48657031 8.0444356 5.59375 11.0078125 C-1.03082739 15.96824484 -7.56790407 18.52720914 -15.84375 18.5703125 C-17.08125 18.58449219 -18.31875 18.59867188 -19.59375 18.61328125 C-22.84375 18.3828125 -22.84375 18.3828125 -25.84375 16.3828125 C-24.96875 12.5078125 -24.96875 12.5078125 -23.84375 11.3828125 C-22.15756513 11.27612945 -20.46955464 11.19783661 -18.78125 11.1328125 C-13.11875435 10.66155148 -9.08818092 9.21341141 -4.84375 5.3828125 C-4.34875 4.4546875 -3.85375 3.5265625 -3.34375 2.5703125 C-1.84375 0.3828125 -1.84375 0.3828125 0 0 Z " fill="#442D62" transform="translate(95.84375,46.6171875)"/>
<path d="M0 0 C2.06146171 4.12292342 1.31328464 8.71548316 0 13 C-2.82610054 16.25032755 -6.20291547 18.03533935 -10 20 C-10.57685547 20.30421875 -11.15371094 20.6084375 -11.74804688 20.921875 C-19.90573338 25.17048868 -27.92757278 28.22606172 -37 30 C-37 26 -37 26 -35.9609375 24.47265625 C-33.08604818 22.31362582 -29.87201114 20.93855231 -26.625 19.4375 C-16.43562208 14.54395532 -7.88538908 8.11604032 0 0 Z " fill="#EAF0FD" transform="translate(186,105)"/>
<path d="M0 0 C7.01965414 1.6379193 11.15970988 3.82883861 15 10 C16.51537326 12.88197701 17.9740612 15.77626524 19.37963867 18.71264648 C21.82764405 23.80485315 24.69675865 28.42628121 28 33 C22.03926146 33 19.16954523 30.06931578 15 26 C0 7.22532895 0 7.22532895 0 0 Z " fill="#B6CCF0" transform="translate(206,15)"/>
<path d="M0 0 C-0.598125 0.268125 -1.19625 0.53625 -1.8125 0.8125 C-4.03065886 1.83895784 -4.03065886 1.83895784 -5.2734375 3.55078125 C-7.74620842 5.62634236 -9.61839927 5.33561528 -12.8125 5.375 C-25.5493755 6.11254736 -37.22858512 11.04557391 -46.16796875 20.2265625 C-47.8371569 22.11231198 -49.4459835 24.01888625 -51 26 C-51.66 25.01 -52.32 24.02 -53 23 C-42.11221042 9.96112737 -27.74669719 -0.23526293 -10.32421875 -1.98046875 C-6.63151351 -2.01149989 -3.51700073 -1.08707295 0 0 Z " fill="#B4CBF1" transform="translate(314,256)"/>
<path d="M0 0 C2.50916764 2.50916764 2.77371691 4.39304926 3.6875 7.8125 C5.86012845 15.19123814 9.19523848 21.33698167 13 28 C14.77520682 31.16476526 15.51889722 34.07259032 16.25 37.625 C17.55534406 43.14396761 19.6654885 47.33642797 22.79296875 52.0390625 C24 54 24 54 24 56 C20.10682571 54.49128658 18.43472062 52.24778099 16.0625 48.875 C15.08990234 47.50988281 15.08990234 47.50988281 14.09765625 46.1171875 C13.40542969 45.08851563 12.71320313 44.05984375 12 43 C11.57984619 42.4234668 11.15969238 41.84693359 10.72680664 41.25292969 C6.86360476 35.65750171 5.56212342 30.12171588 4.3125 23.5 C3.91376864 21.51021436 3.51404738 19.52062681 3.11328125 17.53125 C2.92846191 16.58765625 2.74364258 15.6440625 2.55322266 14.671875 C2.05535254 12.26733371 1.48133753 9.90504556 0.85546875 7.53125 C0 4 0 4 0 0 Z " fill="#EBF1FB" transform="translate(159,275)"/>
<path d="M0 0 C1.35623453 2.64732243 2.55233439 5.31447466 3.6875 8.0625 C5.27621802 11.67536246 7.14422614 14.8913348 9.3125 18.1875 C12.03490127 22.33785589 14.32908058 26.5361994 16.5 31 C19.57267946 37.31257956 23.0890432 43.17517072 27 49 C24 49 24 49 21.984375 47.19921875 C10.72038778 34.53707927 -0.96508881 17.69329486 0 0 Z " fill="#EBF0FB" transform="translate(91,172)"/>
<path d="M0 0 C-0.9620885 5.89279204 -3.07901783 8.80954693 -7.72265625 12.5546875 C-13.61902242 16.29680668 -20.21903747 16.24658046 -27 16 C-27 15.01 -27 14.02 -27 13 C-26.43152344 12.8040625 -25.86304687 12.608125 -25.27734375 12.40625 C-20.53707548 10.57028633 -17.54907389 8.83974181 -14.375 4.8125 C-11.88536625 1.69901371 -11.34430083 1.09336972 -7.3125 0 C-4.875 0 -2.4375 0 0 0 Z " fill="#EAF0FC" transform="translate(127,120)"/>
<path d="M0 0 C1.47558875 1.20729989 2.94796891 2.41888343 4.3984375 3.65625 C5.68500248 4.7357094 7.02296581 5.75376428 8.375 6.75 C10.30059861 9.41621347 10.1115709 10.24620013 9.9375 13.4375 C9.72598972 17.34723551 9.7153014 17.67971407 12.5 20.8125 C13.325 21.534375 14.15 22.25625 15 23 C15 27 15 27 13.5390625 28.5625 C12.90742188 29.036875 12.27578125 29.51125 11.625 30 C8.84668143 32.1037474 7.37499323 33.77779363 6 37 C5.94392578 35.09927734 5.94392578 35.09927734 5.88671875 33.16015625 C5.82100207 31.46091069 5.75455677 29.7616932 5.6875 28.0625 C5.66494141 27.23169922 5.64238281 26.40089844 5.61914062 25.54492188 C5.30621549 18.23385282 3.61718657 12.11885982 0.25 5.625 C-1 3 -1 3 0 0 Z " fill="#EDF3FD" transform="translate(187,168)"/>
<path d="M0 0 C4.21534014 1.70892168 7.253071 4.66099181 10.5625 7.6875 C11.13935547 8.19216797 11.71621094 8.69683594 12.31054688 9.21679688 C15.25507045 11.90320765 17.22866302 14.0734261 18.640625 17.8359375 C19.62191207 21.11010788 19.62191207 21.11010788 22.04296875 21.90234375 C25.02148438 21.95117188 25.02148438 21.95117188 28 22 C25.49854999 24.62528417 22.76976297 26.8641951 19.9375 29.125 C19.05964844 29.82882813 18.18179688 30.53265625 17.27734375 31.2578125 C15 33 15 33 13 34 C13.04640625 33.17757812 13.0928125 32.35515625 13.140625 31.5078125 C13.49836071 20.44355809 11.69772431 13.71796198 4.25 5.4375 C3.45078125 4.61121094 2.6515625 3.78492187 1.828125 2.93359375 C0 1 0 1 0 0 Z " fill="#EAF1FC" transform="translate(104,86)"/>
<path d="M0 0 C4.62185242 1.41131565 6.86675605 3.69458238 10 7.3125 C12.46937397 10.14070487 14.91885384 12.91885384 17.57421875 15.57421875 C19.79961788 17.79961788 21.83547624 20.05348694 23.8125 22.5 C24.41707031 23.2321875 25.02164063 23.964375 25.64453125 24.71875 C27.22114119 27.37217998 27.27244379 28.96572406 27 32 C25.1640625 31.796875 25.1640625 31.796875 23 31 C21.6484375 28.953125 21.6484375 28.953125 20.375 26.25 C15.33022004 16.45418676 8.70190208 7.81018423 0 1 C0 0.67 0 0.34 0 0 Z " fill="#EBF1FB" transform="translate(131,232)"/>
<path d="M0 0 C1.0828125 0.7425 1.0828125 0.7425 2.1875 1.5 C5.14848659 3.07919285 6.71253029 3.28178312 10 3 C9.154375 3.969375 8.30875 4.93875 7.4375 5.9375 C3.80214054 10.17152248 0.39403181 14.57169222 -3 19 C-4.28339322 15.14982035 -3.44990097 12.22453786 -2.625 8.375 C-2.48578125 7.68148438 -2.3465625 6.98796875 -2.203125 6.2734375 C-1.14043257 1.14043257 -1.14043257 1.14043257 0 0 Z " fill="#DBE6FE" transform="translate(271,297)"/>
<path d="M0 0 C2 1.375 2 1.375 4 3 C4 3.66 4 4.32 4 5 C4.57234375 5.21398437 5.1446875 5.42796875 5.734375 5.6484375 C8.77465229 7.46212016 10.23223641 9.73287219 12.25 12.625 C12.95640625 13.62789063 13.6628125 14.63078125 14.390625 15.6640625 C14.92171875 16.43492187 15.4528125 17.20578125 16 18 C14.70700306 20.88437779 13.34058637 22.87219421 11 25 C10.56300781 23.76636719 10.56300781 23.76636719 10.1171875 22.5078125 C7.67555633 15.8585905 4.99935824 9.87054882 1.13671875 3.92578125 C0 2 0 2 0 0 Z " fill="#ECF1FB" transform="translate(250,254)"/>
<path d="M0 0 C1.46373047 0.02707031 1.46373047 0.02707031 2.95703125 0.0546875 C3.69308594 0.07789062 4.42914063 0.10109375 5.1875 0.125 C1.46462675 2.6069155 -2.42635671 4.65279526 -6.375 6.75 C-7.54579102 7.38035156 -7.54579102 7.38035156 -8.74023438 8.0234375 C-9.48724609 8.42046875 -10.23425781 8.8175 -11.00390625 9.2265625 C-11.68654541 9.59088379 -12.36918457 9.95520508 -13.07250977 10.33056641 C-14.8125 11.125 -14.8125 11.125 -16.8125 11.125 C-16.33775937 6.8523343 -13.96915032 4.851198 -10.8125 2.125 C-7.07982921 0.2807701 -4.14096992 -0.09978241 0 0 Z " fill="#DCE5F9" transform="translate(149.8125,95.875)"/>
<path d="M0 0 C2.01655087 1.64990525 4.0118731 3.31662248 6 5 C6.804375 5.66 7.60875 6.32 8.4375 7 C10 9 10 9 9.75 11.75 C9.5025 12.4925 9.255 13.235 9 14 C8.34 14 7.68 14 7 14 C7.185625 15.134375 7.37125 16.26875 7.5625 17.4375 C8.16007011 22.07696797 7.69277259 26.39572681 7 31 C6.67 31 6.34 31 6 31 C5.87044922 29.22496094 5.87044922 29.22496094 5.73828125 27.4140625 C4.73828768 15.59541155 4.73828768 15.59541155 -0.07421875 4.84765625 C-0.37972656 4.23792969 -0.68523437 3.62820312 -1 3 C-0.67 2.01 -0.34 1.02 0 0 Z " fill="#E6EBF6" transform="translate(187,168)"/>
<path d="M0 0 C3.48654476 1.4841373 5.64191072 3.46214052 8.25 6.1875 C11.19099186 9.24048327 14.14144529 11.92067831 17.5 14.5 C20.61803764 17.12929761 21.54383036 18.87632311 22 22.9375 C22.0361585 24.29118383 22.04909846 25.64672372 22 27 C19.0555152 24.35088672 17.10352452 21.23567527 14.9375 17.9375 C11.10736643 12.22328518 6.88431931 7.55902279 1.87109375 2.828125 C1.25363281 2.22484375 0.63617188 1.6215625 0 1 C0 0.67 0 0.34 0 0 Z " fill="#ECF0F9" transform="translate(68,143)"/>
<path d="M0 0 C0.66 0.33 1.32 0.66 2 1 C1.54109375 1.43570313 1.0821875 1.87140625 0.609375 2.3203125 C-3.17320201 5.99163724 -6.18207526 9.55634945 -9 14 C-9.33 14 -9.66 14 -10 14 C-10 11.69 -10 9.38 -10 7 C-10.66 6.67 -11.32 6.34 -12 6 C-11.21753906 5.65066406 -10.43507812 5.30132812 -9.62890625 4.94140625 C-8.61699219 4.48636719 -7.60507813 4.03132812 -6.5625 3.5625 C-5.55316406 3.11003906 -4.54382813 2.65757812 -3.50390625 2.19140625 C-1.1139529 1.22551798 -1.1139529 1.22551798 0 0 Z " fill="#E7EFFD" transform="translate(212,199)"/>
<path d="M0 0 C3.37712073 3.13918723 5.94713869 6.62563371 8.5 10.4375 C11.18655753 14.4214906 13.94515032 18.2855805 17 22 C16.01 22 15.02 22 14 22 C11.9140625 19.65625 11.9140625 19.65625 9.625 16.5 C9.22869385 15.95553223 8.8323877 15.41106445 8.42407227 14.85009766 C0 3.17115272 0 3.17115272 0 0 Z " fill="#BDD2EE" transform="translate(107,190)"/>
<path d="M0 0 C0.2475 0.598125 0.495 1.19625 0.75 1.8125 C2.28822241 4.50438922 3.25167822 5.52013443 6 7 C8.99016821 7.53709412 11.96939277 7.81220596 15 8 C15 8.33 15 8.66 15 9 C11.92382812 9.29296875 11.92382812 9.29296875 8.84765625 9.5859375 C8.23792969 9.72257813 7.62820312 9.85921875 7 10 C6.67 10.66 6.34 11.32 6 12 C2.08366456 9.38910971 1.06801775 7.20989327 -1 3 C-0.67 2.01 -0.34 1.02 0 0 Z " fill="#E9F2FB" transform="translate(158,139)"/>
<path d="M0 0 C1.51400391 0.01740234 1.51400391 0.01740234 3.05859375 0.03515625 C4.07050781 0.04417969 5.08242187 0.05320312 6.125 0.0625 C7.29869141 0.07990234 7.29869141 0.07990234 8.49609375 0.09765625 C5.55282815 2.05983332 2.73630637 3.68006323 -0.50390625 5.09765625 C-1.49390625 4.76765625 -2.48390625 4.43765625 -3.50390625 4.09765625 C-2.84390625 4.09765625 -2.18390625 4.09765625 -1.50390625 4.09765625 C-1.50390625 3.43765625 -1.50390625 2.77765625 -1.50390625 2.09765625 C-2.16390625 1.76765625 -2.82390625 1.43765625 -3.50390625 1.09765625 C-2.50390625 0.09765625 -2.50390625 0.09765625 0 0 Z " fill="#E3ECFC" transform="translate(146.50390625,95.90234375)"/>
<path d="M0 0 C0.99 0.33 1.98 0.66 3 1 C-0.63 4.63 -4.26 8.26 -8 12 C-8.66 11.67 -9.32 11.34 -10 11 C-6.7 7.37 -3.4 3.74 0 0 Z " fill="#3E255C" transform="translate(295,304)"/>
<path d="M0 0 C0.28875 0.639375 0.5775 1.27875 0.875 1.9375 C1.82823451 4.15206079 1.82823451 4.15206079 4 5 C-1.62870885 7.93161919 -4.77166905 8.2019586 -11 7 C-11 6.67 -11 6.34 -11 6 C-6.545 5.505 -6.545 5.505 -2 5 C-1.34 3.35 -0.68 1.7 0 0 Z " fill="#C9CFE6" transform="translate(158,89)"/>
<path d="M0 0 C2.86697492 1.28519565 4.97607712 2.57129254 7 5 C7 5.66 7 6.32 7 7 C7.99 7.33 8.98 7.66 10 8 C9.34 8.66 8.68 9.32 8 10 C6.66070495 8.71451591 5.32871357 7.42141845 4 6.125 C2.88625 5.04605469 2.88625 5.04605469 1.75 3.9453125 C0 2 0 2 0 0 Z " fill="#DEE1F0" transform="translate(182,331)"/>
<path d="M0 0 C0.625 2.0625 0.625 2.0625 1 4 C0.01 4 -0.98 4 -2 4 C-2.33 3.67 -2.66 3.34 -3 3 C-4.51469448 2.76807135 -6.03754562 2.58784762 -7.5625 2.4375 C-8.38878906 2.35371094 -9.21507812 2.26992187 -10.06640625 2.18359375 C-10.70449219 2.12300781 -11.34257812 2.06242188 -12 2 C-12 1.67 -12 1.34 -12 1 C-10.37681021 0.63762737 -8.7513642 0.28534843 -7.125 -0.0625 C-6.22007812 -0.25972656 -5.31515625 -0.45695313 -4.3828125 -0.66015625 C-2 -1 -2 -1 0 0 Z " fill="#C1C7E0" transform="translate(233,160)"/>
<path d="M0 0 C5.75 0.75 5.75 0.75 8 3 C4.8250906 4.9078584 2.89414789 5.1609041 -0.75 4.625 C-1.54921875 4.51414062 -2.3484375 4.40328125 -3.171875 4.2890625 C-3.77515625 4.19367188 -4.3784375 4.09828125 -5 4 C-5 3.67 -5 3.34 -5 3 C-1.535 2.505 -1.535 2.505 2 2 C1.34 1.34 0.68 0.68 0 0 Z " fill="#EDF5FD" transform="translate(149,82)"/>
<path d="M0 0 C0.33 0.66 0.66 1.32 1 2 C1.66 2 2.32 2 3 2 C3.33 5.3 3.66 8.6 4 12 C0.49718958 7.32958611 0.4655008 5.58600962 0 0 Z " fill="#E5E6EF" transform="translate(155,262)"/>
<path d="M0 0 C0.66 0.33 1.32 0.66 2 1 C1.43628586 4.26954202 0.50037734 5.82575883 -2 8 C-2 5.69 -2 3.38 -2 1 C-1.34 0.67 -0.68 0.34 0 0 Z " fill="#D7DFF4" transform="translate(204,205)"/>
<path d="M0 0 C3.28788824 3.11016455 5.83735988 6.01618925 8 10 C6.125 9.75 6.125 9.75 4 9 C2.875 7.25 2.875 7.25 2 5 C1.62875 4.0925 1.2575 3.185 0.875 2.25 C0.58625 1.5075 0.2975 0.765 0 0 Z " fill="#BCD2EF" transform="translate(204,136)"/>
<path d="M0 0 C2.64 0 5.28 0 8 0 C6.8125 1.5 6.8125 1.5 5 3 C2.3125 3.1875 2.3125 3.1875 0 3 C0 2.01 0 1.02 0 0 Z " fill="#F4F8FF" transform="translate(152,10)"/>
<path d="M0 0 C0.99 0 1.98 0 3 0 C3.75241109 3.65456815 4.40049704 7.31733897 5 11 C0 3.5 0 3.5 0 0 Z " fill="#F6FAFE" transform="translate(113,95)"/>
<path d="M0 0 C2.31 1.98 4.62 3.96 7 6 C6.34 6.66 5.68 7.32 5 8 C0 2.25 0 2.25 0 0 Z " fill="#C4DCFB" transform="translate(117,205)"/>
<path d="M0 0 C0.33 0 0.66 0 1 0 C1.33 3.63 1.66 7.26 2 11 C1.01 11.66 0.02 12.32 -1 13 C-0.67 8.71 -0.34 4.42 0 0 Z " fill="#F8FAFD" transform="translate(118,107)"/>
</svg>
